<?xml version="1.0" encoding="UTF-8"?>
<svg version="1.1" xmlns="http://www.w3.org/2000/svg" width="1600" height="896">
<path d="M0 0 C528 0 1056 0 1600 0 C1600 295.68 1600 591.36 1600 896 C1072 896 544 896 0 896 C0 600.32 0 304.64 0 0 Z " fill="#0B2136" transform="translate(0,0)"/>
<path d="M0 0 C11.92125 -0.0825 23.8425 -0.165 36.125 -0.25 C41.72879639 -0.30462402 41.72879639 -0.30462402 47.44580078 -0.36035156 C52.07983398 -0.37841797 52.07983398 -0.37841797 54.26315308 -0.3817749 C55.75758661 -0.38783582 57.25200314 -0.40173052 58.74630737 -0.42230225 C72.73041461 -0.60485136 86.68330938 0.82112442 98 10 C105.66090363 17.80495481 109.0579908 24.38762384 109.5 35.25 C109.28896177 44.88101727 106.35455675 53.433168 99.69140625 60.53125 C96.72065138 63.11093553 93.43835215 65.10628828 90 67 C90.6290625 67.20753906 91.258125 67.41507812 91.90625 67.62890625 C102.85607502 71.57018363 108.94743076 77.96620957 114.109375 88.19921875 C116.81887868 96.71989481 116.32919508 108.76247151 112.3828125 116.765625 C105.53353667 127.83281645 97.37623519 134.08085886 85 138 C80.33819662 138.96540583 75.80916964 139.13727339 71.06689453 139.11352539 C70.28310865 139.11364593 69.49932278 139.11376646 68.69178581 139.11389065 C66.17209847 139.11314839 63.65248649 139.10555162 61.1328125 139.09765625 C59.57023148 139.0961847 58.00764997 139.0951653 56.44506836 139.09460449 C50.67170469 139.08937628 44.89835159 139.07541501 39.125 139.0625 C26.21375 139.041875 13.3025 139.02125 0 139 C0 93.13 0 47.26 0 0 Z " fill="#F8FAFA" transform="translate(345,367)"/>
<path d="M0 0 C2.42312508 2.15198219 4.71618088 4.34867473 6.9453125 6.69921875 C7.4403125 7.19421875 7.4403125 7.19421875 7.9453125 7.69921875 C8.4403125 1.26421875 8.4403125 1.26421875 8.9453125 -5.30078125 C18.1853125 -5.30078125 27.4253125 -5.30078125 36.9453125 -5.30078125 C36.99062229 7.13919669 37.02726256 19.5791192 37.04893684 32.01916122 C37.05934304 37.79649692 37.07344411 43.57377289 37.09619141 49.35107422 C37.11803303 54.93373445 37.12990489 60.51633748 37.13506699 66.09903717 C37.1387425 68.22151845 37.1459195 70.34399684 37.15677261 72.46645355 C37.25646297 92.78293021 36.13237807 109.73976341 21.7578125 125.38671875 C12.51471436 134.12417695 -1.44157028 139.16746845 -14.0546875 139.69921875 C-15.74271484 139.79396484 -15.74271484 139.79396484 -17.46484375 139.890625 C-34.80810148 140.42032056 -48.98396826 136.04774667 -64.0546875 127.69921875 C-65.38374759 127.02407321 -66.71468852 126.35238408 -68.0546875 125.69921875 C-67.49867191 121.9196366 -66.50880089 119.49406417 -64.3046875 116.38671875 C-61.41965911 112.23339286 -58.7060043 108.00467569 -56.0546875 103.69921875 C-53.61743915 104.90872603 -51.19532323 106.14272856 -48.77734375 107.390625 C-47.55736355 108.01446352 -46.33730965 108.63815791 -45.1171875 109.26171875 C-44.50939453 109.57818359 -43.90160156 109.89464844 -43.27539062 110.22070312 C-33.13846595 115.37117942 -19.75715214 115.10700332 -8.69921875 113.0859375 C-1.8687862 110.68204883 2.68061707 105.96978728 6.0390625 99.63671875 C8.60023514 93.18635804 8.23051783 86.53358341 7.9453125 79.69921875 C7.18347656 80.49585938 7.18347656 80.49585938 6.40625 81.30859375 C-2.63325734 90.58509192 -10.35676933 94.69169976 -23.34228516 95.10571289 C-35.6376433 95.24957787 -44.9652535 92.9314679 -55.0546875 85.69921875 C-56.0653125 84.97734375 -57.0759375 84.25546875 -58.1171875 83.51171875 C-68.03169678 74.80958153 -73.2950233 61.53749279 -74.29296875 48.61328125 C-74.64697881 32.92504576 -70.96631395 19.93656542 -61.0546875 7.69921875 C-45.47169457 -8.21532722 -18.76677916 -14.13508047 0 0 Z " fill="#F7F9F9" transform="translate(734.0546875,408.30078125)"/>
<path d="M0 0 C0.89525391 -0.020625 1.79050781 -0.04125 2.71289062 -0.0625 C17.77342832 -0.14949228 32.017515 6.71975235 42.81787109 16.99462891 C53.85938845 28.0888504 57.15861404 41.21744095 57.19287109 56.45092773 C56.9301042 70.1624508 50.94635576 83.14522612 41.46875 92.99609375 C25.64613123 106.42205114 7.60348639 108.31870415 -12.37890625 107.046875 C-25.97758384 105.18237673 -37.19886015 97.18265226 -46.1875 87.25 C-55.33602572 74.96742488 -58.49007433 60.38624346 -57.1875 45.25 C-54.26533626 30.02675176 -45.40501406 17.97387001 -32.9375 9 C-22.59713049 2.46444955 -12.00840663 0.06770067 0 0 Z " fill="#F8F9FA" transform="translate(591.1875,400.75)"/>
<path d="M0 0 C1.03447266 -0.02900391 2.06894531 -0.05800781 3.13476562 -0.08789062 C15.00309 -0.18450191 25.18377461 3.9040522 34.4375 11.3125 C48.67197785 25.91755385 50.4375 38.71291152 50.4375 59.3125 C26.0175 59.3125 1.5975 59.3125 -23.5625 59.3125 C-18.30612716 71.09596591 -18.30612716 71.09596591 -9.3125 78.125 C-0.11547139 81.16736307 11.76913249 80.59762633 20.4921875 76.47265625 C22.67149142 75.23412351 22.67149142 75.23412351 25.3125 73 C27.4375 71.3125 27.4375 71.3125 29.35546875 71.5 C31.85114473 72.47392233 33.05917769 73.6665958 34.875 75.625 C37.56974844 78.44751668 40.31925954 80.95019662 43.4375 83.3125 C40.58122575 89.89058615 34.23226845 94.52520984 27.79296875 97.40234375 C11.99440221 103.50693082 -4.66391198 105.30352295 -20.5625 98.3125 C-33.81649306 91.91871156 -42.92609679 82.2411647 -48.65625 68.734375 C-52.9539665 55.76163816 -51.8594437 39.50027392 -46.12109375 27.23046875 C-38.89880327 13.90861044 -28.19513052 5.184315 -13.66748047 0.73168945 C-9.17884199 -0.16218578 -4.56072756 0.04153668 0 0 Z " fill="#F7F9F9" transform="translate(940.5625,405.6875)"/>
<path d="M0 0 C9.54441402 8.62124137 15.70456017 19.50271925 17.50390625 32.26171875 C17.50390625 37.87171875 17.50390625 43.48171875 17.50390625 49.26171875 C-6.91609375 49.26171875 -31.33609375 49.26171875 -56.49609375 49.26171875 C-53.70145984 57.67048634 -53.70145984 57.67048634 -48.62109375 63.19921875 C-47.98429687 63.72386719 -47.3475 64.24851562 -46.69140625 64.7890625 C-40.82059477 68.72731148 -36.31754031 69.8422237 -29.37109375 69.82421875 C-28.53521729 69.82470215 -27.69934082 69.82518555 -26.83813477 69.82568359 C-18.58913817 69.60469284 -11.4724588 67.2380838 -5.49609375 61.26171875 C-2.49609375 61.26171875 -2.49609375 61.26171875 -0.30859375 63.32421875 C0.11164063 63.7728125 0.531875 64.22140625 0.96484375 64.68359375 C3.95236033 67.74693563 7.26331238 70.47143073 10.50390625 73.26171875 C6.14580969 83.17042586 -4.26761923 86.81917972 -13.68359375 90.51171875 C-27.70510677 94.25078889 -44.33343249 93.23425837 -57.30859375 86.63671875 C-70.68520339 78.57492276 -79.32146841 67.59430495 -83.09326172 52.40185547 C-85.83577253 37.8316435 -83.14074383 23.83840114 -75.49609375 11.26171875 C-68.58157943 1.7730882 -58.63107849 -6.73460732 -46.93359375 -9.3359375 C-30.01217847 -11.31651224 -13.87436255 -10.92580806 0 0 Z " fill="#F7F9FA" transform="translate(1240.49609375,415.73828125)"/>
<path d="M0 0 C9.9 0 19.8 0 30 0 C32.88761733 6.49713899 35.68616873 12.98614521 38.375 19.5625 C38.91640625 20.87444336 38.91640625 20.87444336 39.46875 22.21289062 C41.96661118 28.3134362 44.31802488 34.46291723 46.61853027 40.63995361 C48.51965747 45.7390024 50.46430341 50.81993093 52.4296875 55.89453125 C53.00268854 57.37822263 53.57560528 58.86194656 54.1484375 60.34570312 C55.02160728 62.60685525 55.89634355 64.8673462 56.77539062 67.1262207 C57.64391772 69.35974504 58.50611965 71.59562255 59.3671875 73.83203125 C59.6327243 74.51006302 59.89826111 75.18809479 60.17184448 75.88667297 C61.26922119 78.75117896 62 80.90259766 62 84 C65.11831034 82.44084483 65.52092225 79.37030793 66.62890625 76.2421875 C67.16480505 74.77154649 67.70146387 73.30118227 68.23876953 71.83105469 C68.66648651 70.65246887 68.66648651 70.65246887 69.10284424 69.45007324 C70.64227902 65.24597834 72.24317192 61.06542996 73.83984375 56.8828125 C74.51763842 55.10288754 75.19537206 53.32293934 75.87304688 51.54296875 C76.21327881 50.65013184 76.55351074 49.75729492 76.90405273 48.83740234 C77.93354453 46.1353816 78.96192357 43.43293913 79.99023438 40.73046875 C83.24420459 32.18443509 86.51145995 23.64365296 89.81640625 15.1171875 C90.09403305 14.39878693 90.37165985 13.68038635 90.65769958 12.94021606 C90.92220413 12.25982269 91.18670868 11.57942932 91.45922852 10.87841797 C91.68546402 10.29542938 91.91169952 9.7124408 92.14479065 9.11178589 C93.38269719 6.05499803 94.7008804 3.03127908 96 0 C105.9 0 115.8 0 126 0 C125.22949438 4.62303369 124.55554765 7.46742702 122.734375 11.5859375 C122.02776733 13.20387207 122.02776733 13.20387207 121.30688477 14.85449219 C120.79311279 16.01625977 120.27934082 17.17802734 119.75 18.375 C118.64479843 20.90671929 117.54630482 23.44131728 116.44921875 25.9765625 C116.02255165 26.96124512 116.02255165 26.96124512 115.58726501 27.96582031 C112.47052423 35.18320094 109.50738958 42.46116632 106.5625 49.75 C106.29535187 50.4104129 106.02820374 51.07082581 105.75296021 51.75125122 C104.38788805 55.12625625 103.0247567 58.50203928 101.66308594 61.87841797 C98.84696752 68.8601228 96.01805128 75.83663677 93.1875 82.8125 C92.9150647 83.48444397 92.64262939 84.15638794 92.36193848 84.84869385 C88.76705601 93.71245901 85.13313464 102.55795066 81.3581543 111.34692383 C79.70871182 115.20735066 78.33311361 119.00065916 77 123 C67.76 123 58.52 123 49 123 C47.9275 120.31875 46.855 117.6375 45.75 114.875 C45.17971069 113.4509082 45.17971069 113.4509082 44.59790039 111.99804688 C42.4515553 106.6373614 40.31354671 101.27347092 38.18359375 95.90625 C32.89266689 82.5896711 27.49622355 69.33236407 21.875 56.15063477 C17.76301964 46.4933252 13.85456667 36.76231961 10 27 C5.58405294 15.7599666 5.58405294 15.7599666 0.6640625 4.734375 C0 3 0 3 0 0 Z " fill="#F7F9FA" transform="translate(776,383)"/>
<path d="M0 0 C0.88945313 -0.00322266 1.77890625 -0.00644531 2.6953125 -0.00976562 C10.61154938 0.05426276 17.24024316 1.64505357 24.5625 4.75 C25.54605469 5.16121094 26.52960938 5.57242187 27.54296875 5.99609375 C30.28437717 7.27037601 32.81560883 8.70761669 35.375 10.3125 C34.79834609 15.0996428 32.73417004 18.56378824 30.3125 22.625 C29.93544922 23.27017578 29.55839844 23.91535156 29.16992188 24.58007812 C28.24462507 26.16128152 27.31067319 27.7374146 26.375 29.3125 C22.87983689 27.82051004 19.3973255 26.32264796 15.9375 24.75 C8.86683888 21.89692622 2.00868719 20.29467504 -5.625 21.3125 C-9.29264527 22.69831564 -9.29264527 22.69831564 -11.625 25.3125 C-12.5418463 28.26875267 -12.5418463 28.26875267 -11.625 31.3125 C-7.31724045 37.29235043 -1.32718828 38.13326402 5.5625 39.8125 C16.55933704 42.54049874 28.94358853 45.63360792 35.84765625 55.39453125 C40.35751771 63.17058764 40.81034675 70.8937368 38.5234375 79.52734375 C35.45490184 87.80404029 31.21894847 93.94382104 23.1796875 97.875 C8.11203271 103.91579099 -10.28697797 104.75318807 -25.5390625 98.53173828 C-38.16922413 92.91798367 -38.16922413 92.91798367 -40.625 89.3125 C-40.14383361 86.37477163 -39.10273174 84.16344199 -37.55859375 81.640625 C-37.15576172 80.97675781 -36.75292969 80.31289063 -36.33789062 79.62890625 C-35.70657227 78.60603516 -35.70657227 78.60603516 -35.0625 77.5625 C-34.63775391 76.86511719 -34.21300781 76.16773438 -33.77539062 75.44921875 C-32.72989914 73.73414283 -31.67806649 72.02293527 -30.625 70.3125 C-27.13205628 71.57384079 -24.56890329 73.08436928 -21.625 75.3125 C-11.7335803 80.04601768 -0.42960963 82.3377907 10.375 79.3125 C12.12801797 76.52360778 12.36604326 74.53194017 12.5 71.25 C11.58326273 68.01911387 11.58326273 68.01911387 8.25 66.1875 C3.73419095 64.224456 -0.99823196 63.08623267 -5.76196289 61.88232422 C-17.47047989 58.8820804 -28.33652864 55.4353769 -35.625 45.3125 C-38.99481967 37.04112446 -39.04408968 27.06397258 -35.9375 18.6875 C-34.08203624 14.7696915 -32.01211368 12.08377483 -28.625 9.3125 C-28.04878906 8.80976563 -27.47257812 8.30703125 -26.87890625 7.7890625 C-18.84626584 1.16253822 -10.17933738 -0.1860259 0 0 Z " fill="#F7F9F9" transform="translate(1109.625,405.6875)"/>
<path d="M0 0 C9.57 0 19.14 0 29 0 C29.01458252 3.45227051 29.02916504 6.90454102 29.04418945 10.46142578 C29.09451557 21.86488505 29.1609572 33.26821866 29.23571491 44.67154121 C29.28064887 51.58569946 29.32006898 58.49980647 29.34643555 65.4140625 C29.37189405 72.08610783 29.41281481 78.75789436 29.46318626 85.42980576 C29.47987732 87.97587117 29.49137761 90.52197605 29.49761391 93.06808853 C29.50723028 96.63303822 29.53526164 100.1974014 29.56762695 103.76220703 C29.56547432 105.34285194 29.56547432 105.34285194 29.5632782 106.95542908 C29.63264846 112.35469176 29.86973699 116.37674576 33 121 C35.58120066 122.29060033 37.49419829 122.13272333 40.375 122.125 C41.33148437 122.12757813 42.28796875 122.13015625 43.2734375 122.1328125 C46.24498873 122.07691192 46.24498873 122.07691192 50 121 C50 129.25 50 137.5 50 146 C36.78905299 148.40199036 23.02194198 150.37710076 11 143 C8.3125 140.5 8.3125 140.5 6 138 C5.49167035 137.55445928 4.9833407 137.10891855 4.45960712 136.64987659 C-1.15445071 130.30398909 -0.4168178 119.28493737 -0.34057617 111.3684082 C-0.34101425 110.15735916 -0.34145233 108.94631012 -0.34190369 107.69856262 C-0.34018562 104.41403697 -0.32525765 101.12990699 -0.30418181 97.84545922 C-0.28528425 94.39952873 -0.28365437 90.95358846 -0.28010559 87.50761414 C-0.27082319 80.99845224 -0.24626167 74.48944354 -0.21605712 67.98034877 C-0.18239376 60.56308601 -0.16599727 53.14581551 -0.15097082 45.72849524 C-0.11970811 30.48555997 -0.06474445 15.24283542 0 0 Z " fill="#F6F8F9" transform="translate(477,360)"/>
<path d="M0 0 C0 8.58 0 17.16 0 26 C-2.10375 25.896875 -4.2075 25.79375 -6.375 25.6875 C-13.32479626 25.71557998 -18.49120599 26.61318055 -24 31 C-29.09952197 36.8608003 -31.08392658 41.8947719 -31.20532227 49.59472656 C-31.22526749 50.71558655 -31.24521271 51.83644653 -31.26576233 52.99127197 C-31.28247482 54.19555847 -31.29918732 55.39984497 -31.31640625 56.640625 C-31.33718735 57.87794373 -31.35796844 59.11526245 -31.37937927 60.39007568 C-31.43365872 63.67138691 -31.48391779 66.95272733 -31.53222656 70.23413086 C-31.58256092 73.58583104 -31.6382636 76.9374372 -31.69335938 80.2890625 C-31.80123515 86.8593078 -31.90038431 93.42960346 -32 100 C-40.91 100 -49.82 100 -59 100 C-59 67.66 -59 35.32 -59 2 C-50.75 2 -42.5 2 -34 2 C-33.505 9.92 -33.505 9.92 -33 18 C-32.505 16.989375 -32.01 15.97875 -31.5 14.9375 C-24.40420515 2.68112708 -13.56996497 0 0 0 Z " fill="#F7F9FA" transform="translate(1064,406)"/>
<path d="M0 0 C7.38369318 3.7172201 12.98797042 10.58078122 16.0859375 18.14453125 C16.42444822 20.99930501 16.61106581 23.54803429 16.5859375 26.39453125 C16.58021729 27.14452393 16.57449707 27.8945166 16.56860352 28.66723633 C16.33354145 36.00164778 14.45931453 41.54831155 9.37109375 46.97265625 C1.49886355 54.06972155 -5.31542978 55.48081917 -15.76171875 55.3515625 C-23.55361122 54.83982731 -28.64674194 50.51513261 -33.9140625 45.14453125 C-39.73141087 37.64321362 -40.86342094 30.45058801 -39.9140625 21.14453125 C-37.77054199 12.87170074 -33.61290321 6.84865047 -26.7265625 1.76953125 C-18.91642783 -2.67497482 -8.4930795 -2.49327669 0 0 Z " fill="#0E2438" transform="translate(602.9140625,427.85546875)"/>
<path d="M0 0 C5.16176757 4.22326437 9.75746025 10.32134886 11 17 C11.73017122 24.3438375 10.73706709 31.12755693 6.41796875 37.23828125 C0.98652945 43.71104225 -4.5246366 47.31214088 -13.1328125 48.2265625 C-20.96144198 48.5266145 -28.17298815 46.36630206 -34.4296875 41.59375 C-39.95155011 35.98947153 -42.15481586 28.98922788 -42.3125 21.3125 C-42.22609951 12.91437248 -40.3169808 8.32773969 -34.75 2.1875 C-25.47120414 -6.3685265 -10.50471491 -6.86068104 0 0 Z " fill="#0D2437" transform="translate(732,431)"/>
<path d="M0 0 C5.97781594 -0.06909291 11.95423095 -0.12876033 17.93212891 -0.16479492 C19.9631013 -0.17982599 21.99404154 -0.20025647 24.02490234 -0.22631836 C26.95418259 -0.26295232 29.88303144 -0.27978351 32.8125 -0.29296875 C33.71178223 -0.30845261 34.61106445 -0.32393646 35.53759766 -0.33988953 C42.71879078 -0.341781 48.27379091 0.78495512 54 5.4375 C57.34538603 9.96227636 56.79481675 15.68420721 56 21 C53.52318149 26.04209483 50.61453482 28.8949604 45.47802734 31.06591797 C40.98457298 32.2727098 36.8560755 32.24914466 32.2265625 32.1953125 C31.3028183 32.1924826 30.3790741 32.18965271 29.42733765 32.18673706 C26.49309024 32.17559179 23.5591543 32.15049765 20.625 32.125 C18.62891068 32.11496289 16.63281654 32.10583832 14.63671875 32.09765625 C9.75759757 32.07737728 4.87914517 32.03821785 0 32 C0 21.44 0 10.88 0 0 Z " fill="#112639" transform="translate(374,449)"/>
<path d="M0 0 C5.12380077 -0.09222841 10.24468041 -0.17174031 15.36865234 -0.21972656 C17.10866089 -0.23974522 18.84860299 -0.26696886 20.58837891 -0.30175781 C23.10075346 -0.35070952 25.61223275 -0.37306587 28.125 -0.390625 C28.89303955 -0.41127014 29.6610791 -0.43191528 30.45239258 -0.45318604 C36.06393518 -0.45547659 40.31088657 0.87318441 45 4 C48.90026863 8.2002893 50.38569225 10.96538736 50.26953125 16.7734375 C49.79848414 20.66469624 48.61780119 24.06114772 46 27 C40.36902108 30.68850275 35.53499702 31.56387365 28.90625 31.390625 C27.65805481 31.38213531 27.65805481 31.38213531 26.38464355 31.37347412 C23.7558159 31.35128184 21.12840783 31.30112133 18.5 31.25 C16.70574901 31.22991268 14.91147641 31.21166584 13.1171875 31.1953125 C8.74381965 31.1548932 4.37347753 31.0765784 0 31 C0 20.77 0 10.54 0 0 Z " fill="#112739" transform="translate(374,392)"/>
<path d="M0 0 C6.96163128 3.1462054 11.79674482 6.81531011 14.81640625 13.9765625 C15.31140625 16.9465625 15.31140625 16.9465625 15.81640625 19.9765625 C-0.02359375 19.9765625 -15.86359375 19.9765625 -32.18359375 19.9765625 C-31.09896459 13.46878755 -29.51990655 9.84147541 -25.18359375 4.9765625 C-22.32367817 2.9467902 -19.37872067 1.40797936 -16.18359375 -0.0234375 C-11.21432005 -2.50807435 -5.11464727 -1.6442179 0 0 Z " fill="#112739" transform="translate(1216.18359375,427.0234375)"/>
<path d="M0 0 C3.64655191 4.65690228 4.12482983 7.87380882 5 14 C-10.51 14 -26.02 14 -42 14 C-40.64826826 5.88960955 -37.29794119 1.64577289 -31.140625 -3.51953125 C-21.22427966 -10.3777336 -8.81895008 -7.05516006 0 0 Z " fill="#0F2537" transform="translate(959,433)"/>
<path d="M0 0 C3.35604507 1.30293515 6.11608798 2.92393319 8.4375 5.75 C9.52147422 10.08589686 9.66981341 14.32546646 8 18.5 C7.67 18.995 7.34 19.49 7 20 C8.27617188 20.35771484 8.27617188 20.35771484 9.578125 20.72265625 C13.38181565 22.14252707 16.45448788 24.12478938 19.75 26.4375 C24.08802773 29.42422074 28.45204185 32.30794154 32.98046875 35 C33.80514648 35.49056885 34.62982422 35.9811377 35.47949219 36.48657227 C37.1012328 37.44386313 38.72812634 38.39248458 40.36035156 39.33178711 C41.4639502 39.98546265 41.4639502 39.98546265 42.58984375 40.65234375 C43.24847412 41.03382568 43.90710449 41.41530762 44.58569336 41.80834961 C45.05241455 42.20159424 45.51913574 42.59483887 46 43 C46 43.99 46 44.98 46 46 C40.93779352 45.48004468 37.41490021 43.0147444 33.25 40.3125 C32.18048096 39.6313916 32.18048096 39.6313916 31.08935547 38.93652344 C27.4063325 36.58294511 23.75275475 34.18800722 20.125 31.75 C18.75040449 30.83272689 17.37539687 29.91607108 16 29 C15.15824219 28.42894531 14.31648437 27.85789062 13.44921875 27.26953125 C8.55144615 23.92035157 8.55144615 23.92035157 2.875 23.125 C1.92625 23.41375 0.9775 23.7025 0 24 C-3.53798344 24.48700987 -6.6420621 24.78602021 -9.80859375 22.953125 C-12.89441511 20.43710758 -14.77337074 18.57610346 -15.34375 14.609375 C-15.74849144 7.20260667 -15.74849144 7.20260667 -13.71875 3.94140625 C-9.58599232 0.02467908 -5.56927566 -1.28857751 0 0 Z " fill="#F37462" transform="translate(716,348)"/>
<path d="M0 0 C3.44673452 3.052822 4.92935949 6.36602337 5.390625 10.9609375 C5.23391901 15.05096376 4.14419955 17.52961629 1.25 20.4375 C-3.16973111 23.80014078 -7.48328433 23.6143618 -12.8125 22.9375 C-13.6271875 22.68742187 -14.441875 22.43734375 -15.28125 22.1796875 C-18.96573159 21.82715994 -20.34404632 23.35594026 -23.1875 25.625 C-27.29545546 28.79556965 -31.27451231 31.44605578 -35.8125 33.9375 C-36.864375 34.700625 -37.91625 35.46375 -39 36.25 C-41.8125 37.9375 -41.8125 37.9375 -43.98828125 37.54296875 C-44.59027344 37.34316406 -45.19226563 37.14335937 -45.8125 36.9375 C-39.87983702 31.98288992 -33.84795584 27.52485701 -27.2578125 23.48046875 C-24.80503939 21.99525103 -24.80503939 21.99525103 -22.6796875 20.23828125 C-20.8125 18.9375 -20.8125 18.9375 -17.8125 18.9375 C-18.1425 18.256875 -18.4725 17.57625 -18.8125 16.875 C-20.04813311 13.24532774 -20.28124042 10.75438628 -19.8125 6.9375 C-15.37189709 -0.81144054 -8.26264538 -3.12144381 0 0 Z " fill="#29B1E8" transform="translate(972.8125,363.0625)"/>
<path d="M0 0 C3.80748106 0.03456857 5.44902971 0.14051698 8.8125 2.0625 C11.71544516 5.43366213 12.62772695 7.21204253 13.125 11.6875 C12.68060645 15.98330432 11.45408706 17.99033589 8.75 21.3125 C5.12830864 23.72696091 4.73559335 23.19469732 0.6875 22.4375 C-2.32773518 22.22020977 -2.32773518 22.22020977 -5.25 23.3125 C-8.85665532 27.52207511 -11.3637584 32.16708749 -13.98535156 37.03173828 C-16.0426632 40.74204819 -18.3494933 44.27476628 -20.6875 47.8125 C-21.1007251 48.46484619 -21.5139502 49.11719238 -21.93969727 49.78930664 C-23.12109375 51.59375 -23.12109375 51.59375 -25.25 54.3125 C-26.24 54.3125 -27.23 54.3125 -28.25 54.3125 C-27.60745869 50.53520341 -25.88208558 47.96632224 -23.7578125 44.8125 C-23.05269531 43.760625 -22.34757813 42.70875 -21.62109375 41.625 C-20.87242965 40.5208104 -20.12373142 39.41664395 -19.375 38.3125 C-18.64152344 37.219375 -17.90804687 36.12625 -17.15234375 35 C-11.32237163 26.33468625 -11.32237163 26.33468625 -8.25 22.3125 C-8.559375 21.714375 -8.86875 21.11625 -9.1875 20.5 C-11.45339257 15.83492706 -12.08444997 11.42687077 -11.25 6.3125 C-8.8125 3.3125 -8.8125 3.3125 -6.25 1.3125 C-4.53310511 -0.40439489 -2.34121863 0.05946946 0 0 Z " fill="#F4C665" transform="translate(930.25,342.6875)"/>
<path d="M0 0 C3.35604507 1.30293515 6.11608798 2.92393319 8.4375 5.75 C9.52147422 10.08589686 9.66981341 14.32546646 8 18.5 C7.67 18.995 7.34 19.49 7 20 C8.27617188 20.35771484 8.27617188 20.35771484 9.578125 20.72265625 C13.38181565 22.14252707 16.45448788 24.12478938 19.75 26.4375 C24.08802773 29.42422074 28.45204185 32.30794154 32.98046875 35 C33.80514648 35.49056885 34.62982422 35.9811377 35.47949219 36.48657227 C37.1012328 37.44386313 38.72812634 38.39248458 40.36035156 39.33178711 C41.4639502 39.98546265 41.4639502 39.98546265 42.58984375 40.65234375 C43.24847412 41.03382568 43.90710449 41.41530762 44.58569336 41.80834961 C45.05241455 42.20159424 45.51913574 42.59483887 46 43 C46 43.99 46 44.98 46 46 C40.93779352 45.48004468 37.41490021 43.0147444 33.25 40.3125 C32.18048096 39.6313916 32.18048096 39.6313916 31.08935547 38.93652344 C27.4063325 36.58294511 23.75275475 34.18800722 20.125 31.75 C18.75040449 30.83272689 17.37539687 29.91607108 16 29 C15.15824219 28.42894531 14.31648437 27.85789062 13.44921875 27.26953125 C8.55144615 23.92035157 8.55144615 23.92035157 2.875 23.125 C1.92625 23.41375 0.9775 23.7025 0 24 C-3.53798344 24.48700987 -6.6420621 24.78602021 -9.80859375 22.953125 C-12.89441511 20.43710758 -14.77337074 18.57610346 -15.34375 14.609375 C-15.74849144 7.20260667 -15.74849144 7.20260667 -13.71875 3.94140625 C-9.58599232 0.02467908 -5.56927566 -1.28857751 0 0 Z M-11 4 C-13.66900935 9.3380187 -12.95533748 14.306705 -12 20 C-7.8794254 21.99785435 -4.54805635 22.17835515 0 22 C0.33 21.01 0.66 20.02 1 19 C2.9375 18.4375 2.9375 18.4375 5 18 C7.40668747 16.00885386 7.40668747 16.00885386 7.4375 12.125 C7.36758953 8.62947652 7.1832977 8.19294494 4.625 5.5 C2.21447673 3.83462035 2.21447673 3.83462035 0 4 C-0.33 3.01 -0.66 2.02 -1 1 C-4.63704487 1 -7.88647333 2.15031502 -11 4 Z " fill="#AA7877" transform="translate(716,348)"/>
<path d="M0 0 C0.99 0.99 1.98 1.98 3 3 C3.66 2.67 4.32 2.34 5 2 C5.33 2.99 5.66 3.98 6 5 C6.66 4.01 7.32 3.02 8 2 C8.99 2 9.98 2 11 2 C11 2.99 11 3.98 11 5 C11.99 4.34 12.98 3.68 14 3 C14.33 3.99 14.66 4.98 15 6 C13.70703125 7.98046875 13.70703125 7.98046875 11.8125 10.1875 C5.95878465 17.41718828 3.42999146 23.81794956 2 33 C1.67 33 1.34 33 1 33 C0.67 29.37 0.34 25.74 0 22 C-3 20.66666667 -3 20.66666667 -6 22 C-6.33 22.99 -6.66 23.98 -7 25 C-7.66 24.67 -8.32 24.34 -9 24 C-8.40227336 20.56506424 -7.52472216 17.55768504 -6.15234375 14.35546875 C-5.79462891 13.51435547 -5.43691406 12.67324219 -5.06835938 11.80664062 C-4.50858398 10.51016602 -4.50858398 10.51016602 -3.9375 9.1875 C-3.37192383 7.86202148 -3.37192383 7.86202148 -2.79492188 6.50976562 C-1.86751446 4.33798876 -0.93576366 2.16818633 0 0 Z " fill="#132A3B" transform="translate(889,415)"/>
<path d="M0 0 C2.93756119 -0.0269501 5.87487555 -0.04681474 8.8125 -0.0625 C9.64587891 -0.07087891 10.47925781 -0.07925781 11.33789062 -0.08789062 C12.14033203 -0.09111328 12.94277344 -0.09433594 13.76953125 -0.09765625 C14.87711792 -0.10551147 14.87711792 -0.10551147 16.00708008 -0.11352539 C18 0 18 0 21 1 C25.13326031 6.97026489 24.32427802 13.10866379 23.75 20 C23 22 23 22 21.0625 23.125 C20.381875 23.41375 19.70125 23.7025 19 24 C18.34 24.99 17.68 25.98 17 27 C14.6171875 27.29296875 14.6171875 27.29296875 11.875 27.1875 C10.96492187 27.16042969 10.05484375 27.13335937 9.1171875 27.10546875 C8.41851563 27.07066406 7.71984375 27.03585937 7 27 C6.67 28.65 6.34 30.3 6 32 C6.66 32.33 7.32 32.66 8 33 C7.01 33.495 7.01 33.495 6 34 C3.875 33.0625 3.875 33.0625 2 32 C1.34 33.98 0.68 35.96 0 38 C-0.99 38 -1.98 38 -3 38 C-3.33 39.32 -3.66 40.64 -4 42 C-4.66 42 -5.32 42 -6 42 C-6 42.66 -6 43.32 -6 44 C-6.66 43.67 -7.32 43.34 -8 43 C-6.20867469 40.22894584 -4.41688048 37.45819519 -2.625 34.6875 C-2.11710938 33.90181641 -1.60921875 33.11613281 -1.0859375 32.30664062 C-0.35117187 31.1706543 -0.35117187 31.1706543 0.3984375 30.01171875 C0.84880371 29.31522217 1.29916992 28.61872559 1.76318359 27.90112305 C2.83083893 26.2600192 3.9139897 24.62901545 5 23 C7.42578125 22.8828125 7.42578125 22.8828125 10.3125 23.125 C15.08964324 23.29450489 15.08964324 23.29450489 19.125 20.625 C22.08552233 16.48026873 22.42835187 14.1402224 22 9 C19.7412063 4.75971381 19.7412063 4.75971381 16 2 C14.21140489 1.87792129 12.41771619 1.82451552 10.625 1.8125 C9.66851563 1.79832031 8.71203125 1.78414063 7.7265625 1.76953125 C4.91973286 2.00678476 3.31285212 2.41057422 1 4 C-0.34459819 8.03379456 -0.46246618 11.77813135 0 16 C0.98879205 17.67334039 1.98648336 19.34151823 3 21 C2.05228644 26.00934311 -1.90335858 30.07563997 -5 34 C-6.08287842 30.75136475 -5.85269793 30.12655906 -5 27 C-5 25.68 -5 24.36 -5 23 C-3.35 23 -1.7 23 0 23 C-0.495 22.236875 -0.99 21.47375 -1.5 20.6875 C-3.50503318 15.75846009 -3.44727025 11.26402682 -3 6 C-2.67 5.34 -2.34 4.68 -2 4 C-1.34 4 -0.68 4 0 4 C0 2.68 0 1.36 0 0 Z " fill="#242B22" transform="translate(920,342)"/>
<path d="M0 0 C4.32601221 0.3118567 7.06471657 1.43971657 10.1875 4.5625 C10.98604138 7.61538511 10.70265447 9.31702686 10.1875 12.5625 C8.25 14.3125 8.25 14.3125 6.1875 15.5625 C5.39126178 17.65665804 5.39126178 17.65665804 5.1875 19.5625 C3.929375 19.60375 2.67125 19.645 1.375 19.6875 C0.66730469 19.71070313 -0.04039062 19.73390625 -0.76953125 19.7578125 C-2.8125 19.5625 -2.8125 19.5625 -5.8125 17.5625 C-6.5 14.9375 -6.5 14.9375 -6.8125 12.5625 C-7.1425 12.5625 -7.4725 12.5625 -7.8125 12.5625 C-6.67747065 0.98520059 -6.67747065 0.98520059 0 0 Z " fill="#19B1ED" transform="translate(964.8125,364.4375)"/>
<path d="M0 0 C0.66 0 1.32 0 2 0 C2.061875 1.19625 2.12375 2.3925 2.1875 3.625 C2.76851804 8.4354876 4.61304541 10.61304541 8 14 C11.84961209 15.92480604 16.70618361 15.36887531 20.75390625 14.21484375 C25.50721375 13.90024458 28.25544838 15.94877588 32.1875 18.4375 C32.93636475 18.89471436 33.68522949 19.35192871 34.45678711 19.82299805 C39.69257781 23.06066189 44.70939998 26.54588692 49.6328125 30.2421875 C56.28970386 35.21477302 56.28970386 35.21477302 64 38 C64 37.01 64 36.02 64 35 C63.29875 34.7525 62.5975 34.505 61.875 34.25 C58.62997541 32.83911974 55.89683263 31.02104602 53 29 C55.55144824 28.06954067 56.74006478 27.91435909 59.359375 28.77734375 C60.14828125 29.16019531 60.9371875 29.54304688 61.75 29.9375 C62.54921875 30.31777344 63.3484375 30.69804687 64.171875 31.08984375 C64.77515625 31.39019531 65.3784375 31.69054687 66 32 C66 34.31 66 36.62 66 39 C59.93883142 39.48302372 56.61473921 38.19970071 51.625 35.125 C50.99722656 34.76019531 50.36945312 34.39539063 49.72265625 34.01953125 C45.15255376 31.30510753 45.15255376 31.30510753 44 29 C40.76510486 27.92621333 37.49230194 27.07297633 34.19921875 26.1953125 C30.83227103 24.93733203 29.34741169 23.65359582 27 21 C26.34 20.67 25.68 20.34 25 20 C25 18.68 25 17.36 25 16 C24.01 16 23.02 16 22 16 C22 16.66 22 17.32 22 18 C20.083412 18.02712153 18.1667127 18.04645097 16.25 18.0625 C14.64898438 18.07990234 14.64898438 18.07990234 13.015625 18.09765625 C8.31202572 17.94533762 8.31202572 17.94533762 6 17 C5.67 16.01 5.34 15.02 5 14 C3.68733482 12.64631404 2.35432675 11.31200404 1 10 C-0.60725635 6.78548731 -0.05748185 3.56387464 0 0 Z " fill="#2B2127" transform="translate(698,356)"/>
<path d="M0 0 C0.33 0 0.66 0 1 0 C1.24923458 7.93396732 0.70994772 15.2441657 -1 23 C-1.66 23 -2.32 23 -3 23 C-2.67 24.98 -2.34 26.96 -2 29 C-2.66 29.33 -3.32 29.66 -4 30 C-4.1546875 31.60875 -4.1546875 31.60875 -4.3125 33.25 C-5.12987756 37.70842306 -6.60270425 39.12536513 -10 42 C-11 39 -11 39 -9.5625 35.625 C-6.43844667 27.87218876 -7.12165957 18.7355399 -10 11 C-9.34 11 -8.68 11 -8 11 C-8.33 9.02 -8.66 7.04 -9 5 C-8.34 5.33 -7.68 5.66 -7 6 C-7 6.66 -7 7.32 -7 8 C-6.01 7.67 -5.02 7.34 -4 7 C-3.28272222 5.35448038 -2.61674772 3.68577711 -2 2 C-1.34 1.34 -0.68 0.68 0 0 Z " fill="#0F2537" transform="translate(1156,451)"/>
<path d="M0 0 C0.66 0.33 1.32 0.66 2 1 C1.125 5.75 1.125 5.75 0 8 C0.99 8 1.98 8 3 8 C3 8.66 3 9.32 3 10 C2.01 10 1.02 10 0 10 C0 10.66 0 11.32 0 12 C0.66 12.33 1.32 12.66 2 13 C0.35 13 -1.3 13 -3 13 C-2.67 12.01 -2.34 11.02 -2 10 C-3.98 10 -5.96 10 -8 10 C-8.33 11.32 -8.66 12.64 -9 14 C-10.32 14 -11.64 14 -13 14 C-13.33 14.66 -13.66 15.32 -14 16 C-7.07 16.495 -7.07 16.495 0 17 C0 17.33 0 17.66 0 18 C-0.57967529 18.02505615 -1.15935059 18.0501123 -1.7565918 18.07592773 C-4.40042107 18.19246234 -7.04394409 18.31492682 -9.6875 18.4375 C-10.59951172 18.47681641 -11.51152344 18.51613281 -12.45117188 18.55664062 C-13.33740234 18.59853516 -14.22363281 18.64042969 -15.13671875 18.68359375 C-16.35427856 18.73858032 -16.35427856 18.73858032 -17.59643555 18.79467773 C-20.12144485 19.01037431 -22.52600697 19.45899452 -25 20 C-25 19.34 -25 18.68 -25 18 C-25.66 17.67 -26.32 17.34 -27 17 C-26.2578125 15.0546875 -26.2578125 15.0546875 -25 13 C-23.1171875 12.3828125 -23.1171875 12.3828125 -20.875 12.125 C-16.2185668 11.28922994 -13.54248753 9.49173827 -9.92578125 6.52734375 C-7.1344537 4.31353224 -4.116058 2.71701155 -1 1 C-0.67 0.67 -0.34 0.34 0 0 Z " fill="#0D243D" transform="translate(949,388)"/>
<path d="M0 0 C0.36552803 1.41377782 0.71695495 2.83120576 1.0625 4.25 C1.25972656 5.03890625 1.45695313 5.8278125 1.66015625 6.640625 C2.02490915 9.17293247 1.96450825 10.63670229 1 13 C-2.16240582 15.10827055 -3.50657469 15.33817465 -7.1875 15.625 C-8.08855469 15.69976562 -8.98960937 15.77453125 -9.91796875 15.8515625 C-10.60503906 15.90054687 -11.29210937 15.94953125 -12 16 C-12.33 15.34 -12.66 14.68 -13 14 C-12.01 13.67 -11.02 13.34 -10 13 C-8.78130071 10.49552484 -8.78130071 10.49552484 -8 8 C-9.32 7.67 -10.64 7.34 -12 7 C-12 6.34 -12 5.68 -12 5 C-11.01 5 -10.02 5 -9 5 C-9.66 4.34 -10.32 3.68 -11 3 C-11.99 3 -12.98 3 -14 3 C-9.47669209 -1.81513423 -6.01431461 -1.20548354 0 0 Z " fill="#F6C556" transform="translate(937,347)"/>
<path d="M0 0 C3.80748106 0.03456857 5.44902971 0.14051698 8.8125 2.0625 C11.71544516 5.43366213 12.62772695 7.21204253 13.125 11.6875 C12.68060645 15.98330432 11.45408706 17.99033589 8.75 21.3125 C5.54619983 23.44836678 4.73060033 23.54382175 1.0625 23.4375 C0.25425781 23.41945313 -0.55398438 23.40140625 -1.38671875 23.3828125 C-2.00160156 23.35960937 -2.61648438 23.33640625 -3.25 23.3125 C-3.25 22.6525 -3.25 21.9925 -3.25 21.3125 C-2.47914063 21.11914062 -1.70828125 20.92578125 -0.9140625 20.7265625 C0.08882812 20.46617187 1.09171875 20.20578125 2.125 19.9375 C3.12273438 19.68226563 4.12046875 19.42703125 5.1484375 19.1640625 C7.87541015 18.48845681 7.87541015 18.48845681 9.75 16.3125 C10.06151322 12.10707151 10.21058186 8.83083199 7.75 5.3125 C2.9954535 3.7476043 -1.26794381 3.92306392 -5.875 5.75 C-6.65875 6.265625 -7.4425 6.78125 -8.25 7.3125 C-7.92 11.6025 -7.59 15.8925 -7.25 20.3125 C-10.25 18.3125 -10.25 18.3125 -11.25 15.3125 C-11.65156452 12.24913635 -11.7484547 9.36754492 -11.25 6.3125 C-8.8125 3.3125 -8.8125 3.3125 -6.25 1.3125 C-4.53310511 -0.40439489 -2.34121863 0.05946946 0 0 Z " fill="#DDC276" transform="translate(930.25,342.6875)"/>
<path d="M0 0 C3.35604507 1.30293515 6.11608798 2.92393319 8.4375 5.75 C9.48079848 9.92319391 10.14339968 13.92274799 8.01953125 17.78125 C5.75219426 20.62762997 3.51652866 22.99527753 0 24 C-6.69362364 24.7557317 -6.69362364 24.7557317 -9.81640625 22.94921875 C-12.89789289 20.43205256 -14.77377571 18.57328712 -15.34375 14.609375 C-15.74849144 7.20260667 -15.74849144 7.20260667 -13.71875 3.94140625 C-9.58599232 0.02467908 -5.56927566 -1.28857751 0 0 Z M-11 4 C-13.66900935 9.3380187 -12.95533748 14.306705 -12 20 C-7.8794254 21.99785435 -4.54805635 22.17835515 0 22 C0.33 21.01 0.66 20.02 1 19 C2.9375 18.4375 2.9375 18.4375 5 18 C7.40668747 16.00885386 7.40668747 16.00885386 7.4375 12.125 C7.36758953 8.62947652 7.1832977 8.19294494 4.625 5.5 C2.21447673 3.83462035 2.21447673 3.83462035 0 4 C-0.33 3.01 -0.66 2.02 -1 1 C-4.63704487 1 -7.88647333 2.15031502 -11 4 Z " fill="#CD7E75" transform="translate(716,348)"/>
<path d="M0 0 C-1.46256658 4.1363211 -3.51844637 7.45421154 -6 11.0625 C-8.22295411 14.30294598 -10.35437297 17.42590379 -12 21 C-8.33838422 19.77946141 -7.83729526 18.63217696 -5.8125 15.4375 C-5.28269531 14.61121094 -4.75289062 13.78492188 -4.20703125 12.93359375 C-3.80871094 12.29550781 -3.41039062 11.65742188 -3 11 C-1.68 11.33 -0.36 11.66 1 12 C0.360625 12.391875 -0.27875 12.78375 -0.9375 13.1875 C-3.43778819 15.38472296 -3.64950425 16.75791433 -4 20 C-4.99 20 -5.98 20 -7 20 C-7.33 20.99 -7.66 21.98 -8 23 C-8.99 22.67 -9.98 22.34 -11 22 C-11 22.66 -11 23.32 -11 24 C-12.98 23.34 -14.96 22.68 -17 22 C-15.33333333 17 -13.66666667 12 -12 7 C-11.67 7.66 -11.34 8.32 -11 9 C-10.34 8.67 -9.68 8.34 -9 8 C-8.34 7.67 -7.68 7.34 -7 7 C-6.690625 6.38125 -6.38125 5.7625 -6.0625 5.125 C-4.63758329 2.27516657 -3.3648198 0 0 0 Z " fill="#2C322E" transform="translate(914,376)"/>
<path d="M0 0 C0.99 0.33 1.98 0.66 3 1 C-0.305045 6.3513601 -3.63898578 11.68361075 -7 17 C-7.46422363 17.73589355 -7.92844727 18.47178711 -8.40673828 19.22998047 C-9.73808734 21.32816395 -11.08493351 23.41544742 -12.4375 25.5 C-12.84983887 26.15234619 -13.26217773 26.80469238 -13.68701172 27.47680664 C-14.71234633 29.03933202 -15.84778094 30.52854227 -17 32 C-17.99 32 -18.98 32 -20 32 C-19.35745869 28.22270341 -17.63208558 25.65382224 -15.5078125 22.5 C-14.45013672 20.9221875 -14.45013672 20.9221875 -13.37109375 19.3125 C-12.62242965 18.2083104 -11.87373142 17.10414395 -11.125 16 C-10.39152344 14.906875 -9.65804687 13.81375 -8.90234375 12.6875 C-3.07237163 4.02218625 -3.07237163 4.02218625 0 0 Z " fill="#CDC08C" transform="translate(922,365)"/>
<path d="M0 0 C0.99 0.33 1.98 0.66 3 1 C2.01537456 4.00569871 1.01094863 7.00311671 0 10 C-0.39832031 11.21429688 -0.79664063 12.42859375 -1.20703125 13.6796875 C-1.63728654 14.95337328 -2.06827542 16.22681149 -2.5 17.5 C-2.9021875 18.7065625 -3.304375 19.913125 -3.71875 21.15625 C-4.35296875 22.56390625 -4.35296875 22.56390625 -5 24 C-5.99 24.33 -6.98 24.66 -8 25 C-8.67057887 23.2097939 -9.3363469 21.41778511 -10 19.625 C-10.37125 18.62726563 -10.7425 17.62953125 -11.125 16.6015625 C-12 14 -12 14 -12 12 C-11.34 12 -10.68 12 -10 12 C-10 12.99 -10 13.98 -10 15 C-8.35 15 -6.7 15 -5 15 C-4.67 11.7 -4.34 8.4 -4 5 C-3.34 5 -2.68 5 -2 5 C-1.34 3.35 -0.68 1.7 0 0 Z " fill="#182D39" transform="translate(846,442)"/>
<path d="M0 0 C0.74507812 0.00902344 1.49015625 0.01804687 2.2578125 0.02734375 C4.08868059 0.05081642 5.91938238 0.08668475 7.75 0.125 C12.34225513 10.49857631 12.34225513 10.49857631 11.75 16.125 C11.09 16.125 10.43 16.125 9.75 16.125 C10.08 18.435 10.41 20.745 10.75 23.125 C9.43 22.795 8.11 22.465 6.75 22.125 C6.915 21.63 7.08 21.135 7.25 20.625 C8.11576467 16.29617666 8.76718789 10.15937577 6.75 6.125 C4.34047977 4.87785597 4.34047977 4.87785597 1.75 4.125 C1.09 3.795 0.43 3.465 -0.25 3.125 C-6.56645868 2.70992826 -6.56645868 2.70992826 -12.25 5.125 C-12.25 4.135 -12.25 3.145 -12.25 2.125 C-8.4084024 -0.44280471 -4.4360825 -0.10188882 0 0 Z " fill="#161E2B" transform="translate(716.25,345.875)"/>
<path d="M0 0 C0.33 0 0.66 0 1 0 C1.48550351 9.23805298 0.86732429 16.54022812 -3 25 C-4.9078584 21.8250906 -5.1609041 19.89414789 -4.625 16.25 C-4.51414062 15.45078125 -4.40328125 14.6515625 -4.2890625 13.828125 C-4.14597656 12.92320312 -4.14597656 12.92320312 -4 12 C-4.99 12.495 -4.99 12.495 -6 13 C-6 12.34 -6 11.68 -6 11 C-7.32 10.34 -8.64 9.68 -10 9 C-9.44570313 8.51789063 -8.89140625 8.03578125 -8.3203125 7.5390625 C-7.59585938 6.90742188 -6.87140625 6.27578125 -6.125 5.625 C-5.40570312 4.99851562 -4.68640625 4.37203125 -3.9453125 3.7265625 C-2.5923402 2.52573166 -1.2791655 1.2791655 0 0 Z " fill="#21323F" transform="translate(742,487)"/>
<path d="M0 0 C1.0725 0.226875 2.145 0.45375 3.25 0.6875 C2.92 1.3475 2.59 2.0075 2.25 2.6875 C1.37794922 2.89439453 1.37794922 2.89439453 0.48828125 3.10546875 C-2.37936067 3.85115574 -4.18012958 5.24792601 -6.5625 7 C-9.48187949 9.10058143 -12.35691088 11.12495038 -15.5 12.875 C-18.82120789 14.64297598 -18.82120789 14.64297598 -21.9375 17 C-24.75 18.6875 -24.75 18.6875 -26.92578125 18.29296875 C-27.52777344 18.09316406 -28.12976563 17.89335937 -28.75 17.6875 C-22.81733702 12.73288992 -16.78545584 8.27485701 -10.1953125 4.23046875 C-7.74094663 2.75355948 -7.74094663 2.75355948 -5.6640625 0.96875 C-3.75 -0.3125 -3.75 -0.3125 0 0 Z " fill="#409CC8" transform="translate(955.75,382.3125)"/>
<path d="M0 0 C0.66 1.32 1.32 2.64 2 4 C2.66 3.01 3.32 2.02 4 1 C6.625 0.3125 6.625 0.3125 9 0 C9 0.66 9 1.32 9 2 C10.32 1.67 11.64 1.34 13 1 C11.90914359 4.27256924 11.31511435 4.74693639 8.6875 6.75 C4.99758203 9.77178468 3.12283891 12.75432217 1 17 C0.67 17 0.34 17 0 17 C0 11.39 0 5.78 0 0 Z " fill="#253644" transform="translate(1030,408)"/>
<path d="M0 0 C-0.66 2.97 -1.32 5.94 -2 9 C-2.99 8.67 -3.98 8.34 -5 8 C-5 7.34 -5 6.68 -5 6 C-14.9 6 -24.8 6 -35 6 C-35 5.67 -35 5.34 -35 5 C-27.41 5 -19.82 5 -12 5 C-11.67 4.34 -11.34 3.68 -11 3 C-10.34 3.33 -9.68 3.66 -9 4 C-9 3.34 -9 2.68 -9 2 C-8.34 2 -7.68 2 -7 2 C-7 1.34 -7 0.68 -7 0 C-4.3333581 -1.33332095 -2.83319697 -0.67102033 0 0 Z " fill="#14293B" transform="translate(908,377)"/>
<path d="M0 0 C2.51005664 3.76508495 2.0258295 6.39461609 1.625 10.6875 C1.56828125 11.38939453 1.5115625 12.09128906 1.453125 12.81445312 C1.31195359 14.54380285 1.15728041 16.27204088 1 18 C0.34 17.34 -0.32 16.68 -1 16 C-1.66 16.99 -2.32 17.98 -3 19 C-3.66 18.67 -4.32 18.34 -5 18 C-5 16.68 -5 15.36 -5 14 C-6.65 14 -8.3 14 -10 14 C-9.401875 13.7525 -8.80375 13.505 -8.1875 13.25 C-5.58679257 11.76388147 -4.45583423 10.62050161 -3 8 C-2.74913276 4.83267579 -2.74913276 4.83267579 -3 2 C-2.34 2 -1.68 2 -1 2 C-0.67 1.34 -0.34 0.68 0 0 Z " fill="#0D2337" transform="translate(1071,424)"/>
<path d="M0 0 C5.87924528 4.33207547 5.87924528 4.33207547 7 8 C7.29745597 11.85909987 7.23638673 15.29083981 6 19 C3.525 18.01 3.525 18.01 1 17 C1 16.34 1 15.68 1 15 C1.66 15 2.32 15 3 15 C2.649375 14.2575 2.29875 13.515 1.9375 12.75 C0.95490707 9.8677274 0.9673198 8.78823655 2 6 C0.68 5.34 -0.64 4.68 -2 4 C-2 3.34 -2 2.68 -2 2 C-1.34 2 -0.68 2 0 2 C0 1.34 0 0.68 0 0 Z " fill="#1E2F3C" transform="translate(417,395)"/>
<path d="M0 0 C0.33 0 0.66 0 1 0 C1.125 4.75 1.125 4.75 0 7 C-3.70152058 8.88034616 -6.69484136 9.22422069 -10.8125 9.125 C-12.27623047 9.09792969 -12.27623047 9.09792969 -13.76953125 9.0703125 C-14.50558594 9.04710937 -15.24164062 9.02390625 -16 9 C-16.33 8.01 -16.66 7.02 -17 6 C-17.5775 6.350625 -18.155 6.70125 -18.75 7.0625 C-21.35801776 8.14917407 -22.39417629 7.93065133 -25 7 C-23.3125 5.4375 -23.3125 5.4375 -21 4 C-18.875 4.3125 -18.875 4.3125 -16 5 C-9.81577541 5.73283203 -9.81577541 5.73283203 -4.0546875 3.8828125 C-2.2427764 2.37572449 -2.2427764 2.37572449 0 0 Z " fill="#063152" transform="translate(976,380)"/>
<path d="M0 0 C1.32 0 2.64 0 4 0 C4.86883706 1.57533086 5.71959068 3.16064509 6.5625 4.75 C7.03816406 5.63171875 7.51382813 6.5134375 8.00390625 7.421875 C9.07998186 10.20701188 9.06528748 11.26980214 8 14 C7.01 14 6.02 14 5 14 C5 12.68 5 11.36 5 10 C3.02 10.99 1.04 11.98 -1 13 C-1 10.69 -1 8.38 -1 6 C-0.34 5.67 0.32 5.34 1 5 C0.67 3.35 0.34 1.7 0 0 Z " fill="#172A3C" transform="translate(889,474)"/>
<path d="M0 0 C3.61703101 2.83071992 3.13119582 3.78717492 4 9 C-10.19 9 -24.38 9 -39 9 C-39 8.67 -39 8.34 -39 8 C-27.12 8 -15.24 8 -3 8 C-1.8509288 6.0745356 -1.8509288 6.0745356 -2 4 C-2 3.01 -2 2.02 -2 1 C-1.34 0.67 -0.68 0.34 0 0 Z " fill="#1C2E3B" transform="translate(1228,438)"/>
<path d="M0 0 C-1.1446875 0.86625 -1.1446875 0.86625 -2.3125 1.75 C-5.62444915 4.50508218 -5.62444915 4.50508218 -8 8 C-8.30405501 12.18075636 -7.9861046 15.93231851 -7 20 C-8.32 20.33 -9.64 20.66 -11 21 C-11.05451714 18.95863605 -11.09302485 16.91684144 -11.125 14.875 C-11.14820313 13.73804688 -11.17140625 12.60109375 -11.1953125 11.4296875 C-10.94237645 6.98813041 -10.27671513 3.36476445 -7.1875 0.0625 C-4.38934155 -1.29660553 -2.91979993 -0.89216109 0 0 Z " fill="#022E4C" transform="translate(962,362)"/>
<path d="M0 0 C3.68266103 0.59950296 7.34543185 1.24758891 11 2 C11 2.33 11 2.66 11 3 C17.93 3.495 17.93 3.495 25 4 C25 4.33 25 4.66 25 5 C24.42032471 5.02505615 23.84064941 5.0501123 23.2434082 5.07592773 C20.59957893 5.19246234 17.95605591 5.31492682 15.3125 5.4375 C13.94448242 5.49647461 13.94448242 5.49647461 12.54882812 5.55664062 C11.21948242 5.61948242 11.21948242 5.61948242 9.86328125 5.68359375 C9.05157471 5.72025146 8.23986816 5.75690918 7.40356445 5.79467773 C4.87855515 6.01037431 2.47399303 6.45899452 0 7 C0 6.34 0 5.68 0 5 C-0.66 4.67 -1.32 4.34 -2 4 C-1.34 2.68 -0.68 1.36 0 0 Z " fill="#2B4153" transform="translate(924,401)"/>
<path d="M0 0 C2.64 0.33 5.28 0.66 8 1 C8 1.33 8 1.66 8 2 C5.69 2 3.38 2 1 2 C0.34 4.64 -0.32 7.28 -1 10 C-1.66 9.67 -2.32 9.34 -3 9 C-3.66 10.98 -4.32 12.96 -5 15 C-5.99 15 -6.98 15 -8 15 C-8.33 16.32 -8.66 17.64 -9 19 C-9.66 19 -10.32 19 -11 19 C-11 19.66 -11 20.32 -11 21 C-11.66 20.67 -12.32 20.34 -13 20 C-11.20867469 17.22894584 -9.41688048 14.45819519 -7.625 11.6875 C-7.11710938 10.90181641 -6.60921875 10.11613281 -6.0859375 9.30664062 C-5.35117187 8.1706543 -5.35117187 8.1706543 -4.6015625 7.01171875 C-4.15119629 6.31522217 -3.70083008 5.61872559 -3.23681641 4.90112305 C-2.16916107 3.2600192 -1.0860103 1.62901545 0 0 Z " fill="#303121" transform="translate(925,365)"/>
<path d="M0 0 C0.33 0 0.66 0 1 0 C1.12117187 1.08539063 1.24234375 2.17078125 1.3671875 3.2890625 C1.53612469 4.73441404 1.70541425 6.17972442 1.875 7.625 C1.95363281 8.33785156 2.03226563 9.05070312 2.11328125 9.78515625 C2.62764853 14.09792806 3.57652653 17.87683547 5 22 C4.625 24.375 4.625 24.375 4 26 C0.9410912 23.96072747 0.25350451 23.29119195 -1 20 C-1.68548335 13.37753376 -0.78429239 6.58245397 0 0 Z " fill="#1E303F" transform="translate(659,450)"/>
<path d="M0 0 C0.66 0.99 1.32 1.98 2 3 C1.34 3 0.68 3 0 3 C0 3.66 0 4.32 0 5 C0.66 5 1.32 5 2 5 C0.94124926 8.40312738 -0.00902154 11.01353231 -2 14 C-2.38499891 15.65549531 -2.72793135 17.3222433 -3 19 C-4.32 19.33 -5.64 19.66 -7 20 C-6.29937517 15.43263559 -4.68729793 11.4300495 -2.9375 7.1875 C-2.51500977 6.14819336 -2.51500977 6.14819336 -2.08398438 5.08789062 C-1.39325027 3.39032376 -0.69716272 1.69493688 0 0 Z " fill="#263745" transform="translate(873,454)"/>
<path d="M0 0 C1.32 0.33 2.64 0.66 4 1 C-0.29549065 6.40963353 -4.6066929 11.10911331 -11 14 C-11.99 14 -12.98 14 -14 14 C-13.375 12.125 -13.375 12.125 -12 10 C-8.875 8.75 -8.875 8.75 -6 8 C-6 7.34 -6 6.68 -6 6 C-4.35 5.67 -2.7 5.34 -1 5 C-0.67 3.35 -0.34 1.7 0 0 Z " fill="#E9EFF3" transform="translate(446,420)"/>
<path d="M0 0 C2.0625 0.4375 2.0625 0.4375 4 1 C1.58522432 2.62787116 -0.83170438 4.25237281 -3.25 5.875 C-3.93191406 6.33519531 -4.61382813 6.79539062 -5.31640625 7.26953125 C-5.98027344 7.71425781 -6.64414062 8.15898437 -7.328125 8.6171875 C-8.23933105 9.22989502 -8.23933105 9.22989502 -9.16894531 9.85498047 C-11.06024063 11.03767048 -12.99058862 12.03408604 -15 13 C-14.6875 11.125 -14.6875 11.125 -14 9 C-13.01 8.34 -12.02 7.68 -11 7 C-10.67 6.01 -10.34 5.02 -10 4 C-7.96875 3.0859375 -7.96875 3.0859375 -5.5 2.375 C-2.48411921 1.65305469 -2.48411921 1.65305469 0 0 Z " fill="#04304E" transform="translate(947,383)"/>
<path d="M0 0 C4.29 0.66 8.58 1.32 13 2 C13 2.66 13 3.32 13 4 C14.32 4.66 15.64 5.32 17 6 C10.28299653 6.31985731 5.24273068 5.4793824 -1 3 C-0.67 2.01 -0.34 1.02 0 0 Z " fill="#152835" transform="translate(704,473)"/>
<path d="M0 0 C3.85563801 0.12572733 6.22059148 0.68466674 9.1875 3.3125 C12.41561481 8.80029518 12.3470285 12.30403412 11.1875 18.3125 C10.8575 18.3125 10.5275 18.3125 10.1875 18.3125 C10.17332031 17.64863281 10.15914062 16.98476563 10.14453125 16.30078125 C9.90798143 11.9214129 9.62774314 9.00836818 7.25 5.25 C3.01265065 2.56922796 -0.87764185 2.41790474 -5.8125 2.3125 C-3.8125 0.3125 -3.8125 0.3125 0 0 Z " fill="#3690BE" transform="translate(965.8125,361.6875)"/>
<path d="M0 0 C1.8671875 2.0390625 1.8671875 2.0390625 3 4 C2.505 3.690625 2.01 3.38125 1.5 3.0625 C-1.97986781 1.58355618 -5.24028509 1.37597149 -9 1 C-9.66 2.65 -10.32 4.3 -11 6 C-11.33 5.34 -11.66 4.68 -12 4 C-12.99 4.495 -12.99 4.495 -14 5 C-14.46651207 7.12576782 -14.46651207 7.12576782 -14.625 9.5625 C-14.69976563 10.38878906 -14.77453125 11.21507812 -14.8515625 12.06640625 C-14.90054688 12.70449219 -14.94953125 13.34257812 -15 14 C-15.66 13.67 -16.32 13.34 -17 13 C-17.42417775 8.75822247 -17.20115528 6.39512645 -15.25 2.5625 C-11.40574684 -1.58173824 -5.1618617 -1.13237422 0 0 Z " fill="#329FD0" transform="translate(970,364)"/>
<path d="M0 0 C0.33 0 0.66 0 1 0 C1.92311467 9.76108294 1.92311467 9.76108294 -1.375 14.1875 C-5.51458992 16.95386057 -10.22912502 16.4242873 -15 16 C-15 15.67 -15 15.34 -15 15 C-10.545 14.505 -10.545 14.505 -6 14 C-5.7525 13.21625 -5.505 12.4325 -5.25 11.625 C-3.84610901 8.67682892 -2.99324263 8.0975223 0 7 C0 4.69 0 2.38 0 0 Z " fill="#30A9D9" transform="translate(975,370)"/>
<path d="M0 0 C-4.75522045 4.61935701 -8.40653991 7.76372623 -15 9 C-15.33 8.34 -15.66 7.68 -16 7 C-14.60823368 6.03576974 -13.2113777 5.07888398 -11.8125 4.125 C-11.03519531 3.59132813 -10.25789062 3.05765625 -9.45703125 2.5078125 C-2.95931478 -1.47965739 -2.95931478 -1.47965739 0 0 Z " fill="#E0EBEF" transform="translate(570,406)"/>
<path d="M0 0 C0.99 0.33 1.98 0.66 3 1 C-0.38232729 4.58128772 -3.67246241 7.60604303 -8 10 C-10.18359375 9.6015625 -10.18359375 9.6015625 -12 9 C-10.37680325 7.68527053 -8.751385 6.37328338 -7.125 5.0625 C-6.22007812 4.33160156 -5.31515625 3.60070312 -4.3828125 2.84765625 C-2 1 -2 1 0 0 Z " fill="#56AACA" transform="translate(939,391)"/>
<path d="M0 0 C5.66153846 1.47692308 5.66153846 1.47692308 7.375 4.125 C7.684375 5.053125 7.684375 5.053125 8 6 C8.66 6 9.32 6 10 6 C10 6.66 10 7.32 10 8 C11.65 8.33 13.3 8.66 15 9 C14.67 9.66 14.34 10.32 14 11 C12.55903414 10.57405412 11.12231288 10.13373367 9.6875 9.6875 C8.88699219 9.44386719 8.08648438 9.20023437 7.26171875 8.94921875 C4.87696243 7.94836247 3.72410521 6.88589808 2 5 C1.34 4.67 0.68 4.34 0 4 C0 2.68 0 1.36 0 0 Z " fill="#1F242A" transform="translate(723,372)"/>
<path d="M0 0 C0.33 0.99 0.66 1.98 1 3 C0.67 3.66 0.34 4.32 0 5 C1.32 6.32 2.64 7.64 4 9 C3.01 9.495 3.01 9.495 2 10 C-0.6015625 9.00390625 -0.6015625 9.00390625 -3.625 7.5625 C-4.62789063 7.08941406 -5.63078125 6.61632812 -6.6640625 6.12890625 C-7.43492187 5.75636719 -8.20578125 5.38382812 -9 5 C-2.40909091 0 -2.40909091 0 0 0 Z " fill="#2D3A45" transform="translate(443,429)"/>
<path d="M0 0 C0.66 0.66 1.32 1.32 2 2 C0.63875 2.86625 0.63875 2.86625 -0.75 3.75 C-3.52022946 5.66785116 -5.71945499 7.54402845 -8 10 C-8.66 9.34 -9.32 8.68 -10 8 C-10 4 -10 4 -8 1 C-7.13375 1.309375 -7.13375 1.309375 -6.25 1.625 C-3.48032433 2.08661261 -2.35438733 1.42944945 0 0 Z " fill="#EBF1F2" transform="translate(1043,432)"/>
<path d="M0 0 C4.62 0 9.24 0 14 0 C14 0.33 14 0.66 14 1 C13.09507812 1.07347656 13.09507812 1.07347656 12.171875 1.1484375 C10.97304688 1.26058594 10.97304688 1.26058594 9.75 1.375 C8.56664062 1.47941406 8.56664062 1.47941406 7.359375 1.5859375 C4.78652989 2.0374633 3.1274535 2.46972643 1 4 C0.08400573 6.40404738 0.08400573 6.40404738 -0.25 9.125 C-0.39953125 10.03507812 -0.5490625 10.94515625 -0.703125 11.8828125 C-0.80109375 12.58148438 -0.8990625 13.28015625 -1 14 C-3 12 -3 12 -3.1875 9 C-3 6 -3 6 -2 4 C-1.34 4 -0.68 4 0 4 C0 2.68 0 1.36 0 0 Z " fill="#363729" transform="translate(920,342)"/>
<path d="M0 0 C0.91007812 0.10183594 1.82015625 0.20367187 2.7578125 0.30859375 C3.45648437 0.39238281 4.15515625 0.47617187 4.875 0.5625 C4.524375 1.18125 4.17375 1.8 3.8125 2.4375 C3.503125 3.13875 3.19375 3.84 2.875 4.5625 C3.205 5.2225 3.535 5.8825 3.875 6.5625 C-2.065 5.0775 -2.065 5.0775 -8.125 3.5625 C-7.795 2.5725 -7.465 1.5825 -7.125 0.5625 C-4.50184968 -0.74907516 -2.89466564 -0.33399988 0 0 Z " fill="#1E303F" transform="translate(1118.125,441.4375)"/>
<path d="M0 0 C0.99 0.33 1.98 0.66 3 1 C0.36 5.29 -2.28 9.58 -5 14 C-5.99 13.67 -6.98 13.34 -8 13 C-6.40956621 7.91061189 -3.2553049 4.12543357 0 0 Z " fill="#CCBE87" transform="translate(922,365)"/>
<path d="M0 0 C-0.99 0.495 -0.99 0.495 -2 1 C-2 1.66 -2 2.32 -2 3 C-7.625 4.125 -7.625 4.125 -11 3 C-11 2.34 -11 1.68 -11 1 C-12.98 1 -14.96 1 -17 1 C-17 0.67 -17 0.34 -17 0 C-14.91957837 -0.39083065 -12.83547661 -0.7621087 -10.75 -1.125 C-9.00976562 -1.43824219 -9.00976562 -1.43824219 -7.234375 -1.7578125 C-3.96445684 -2.00266144 -2.67507166 -1.78779541 0 0 Z " fill="#1B2C3D" transform="translate(737,547)"/>
<path d="M0 0 C0.639375 0.680625 1.27875 1.36125 1.9375 2.0625 C5.08865883 5.24098102 8.63303163 7.8649177 12.20703125 10.546875 C12.79871094 11.02640625 13.39039063 11.5059375 14 12 C14 12.33 14 12.66 14 13 C10.8125 13.5 10.8125 13.5 7 13 C5.32837908 11.06421101 4.21557586 9.1168311 3.04296875 6.84765625 C2.13308658 4.8336005 2.13308658 4.8336005 0 4 C0 2.68 0 1.36 0 0 Z " fill="#1E2F3B" transform="translate(1166,487)"/>
<path d="M0 0 C0.33 0 0.66 0 1 0 C1.08160748 1.89510699 1.13946459 3.79124504 1.1875 5.6875 C1.22230469 6.74324219 1.25710938 7.79898437 1.29296875 8.88671875 C0.96666615 12.35422768 -0.00969875 14.18432448 -2 17 C-2.66 16.67 -3.32 16.34 -4 16 C-4 14.02 -4 12.04 -4 10 C-3.67 10.99 -3.34 11.98 -3 13 C-2.34 13 -1.68 13 -1 13 C-1.350625 12.4225 -1.70125 11.845 -2.0625 11.25 C-3.5334171 7.71979896 -2.27249865 5.70529063 -0.9375 2.25 C-0.4734375 1.13625 -0.4734375 1.13625 0 0 Z " fill="#192A38" transform="translate(429,458)"/>
<path d="M0 0 C0.66 0.33 1.32 0.66 2 1 C1.67 2.98 1.34 4.96 1 7 C-0.27875 7.144375 -1.5575 7.28875 -2.875 7.4375 C-5.25692894 7.70642746 -6.84452691 7.92226346 -9 9 C-9 8.34 -9 7.68 -9 7 C-9.66 6.67 -10.32 6.34 -11 6 C-10.18595703 5.60167969 -10.18595703 5.60167969 -9.35546875 5.1953125 C-8.64003906 4.84210938 -7.92460938 4.48890625 -7.1875 4.125 C-6.47980469 3.77695312 -5.77210938 3.42890625 -5.04296875 3.0703125 C-2.78753582 1.9343514 -2.78753582 1.9343514 0 0 Z " fill="#0A3356" transform="translate(939,395)"/>
<path d="M0 0 C0.66 0.99 1.32 1.98 2 3 C1.67 3.33 1.34 3.66 1 4 C0.92794489 5.68608966 0.91613932 7.37500659 0.9375 9.0625 C0.95103516 10.44115234 0.95103516 10.44115234 0.96484375 11.84765625 C0.97644531 12.55792969 0.98804688 13.26820313 1 14 C-0.65 14 -2.3 14 -4 14 C-4 14.66 -4 15.32 -4 16 C-4.66 16 -5.32 16 -6 16 C-4.25192871 10.53262809 -2.34205919 5.24175152 0 0 Z " fill="#263843" transform="translate(860,486)"/>
<path d="M0 0 C2.23495428 2.23495428 3.0024791 4.02414536 4.1875 6.9375 C4.55230469 7.81277344 4.91710937 8.68804687 5.29296875 9.58984375 C6 12 6 12 5 15 C2.5625 14.125 2.5625 14.125 0 12 C-0.98173317 8.07956885 -1.85236482 3.70472964 0 0 Z " fill="#182A38" transform="translate(795,432)"/>
<path d="M0 0 C1.66666667 0.33333333 3.33333333 0.66666667 5 1 C6.24394531 1.24878906 7.48789063 1.49757813 8.76953125 1.75390625 C10.81705729 2.16341146 12.86458333 2.57291667 14.91210938 2.98242188 C15.56630859 3.11326172 16.22050781 3.24410156 16.89453125 3.37890625 C17.91933594 3.58386719 18.94414063 3.78882813 20 4 C20 4.33 20 4.66 20 5 C16.7 5.33 13.4 5.66 10 6 C10 5.34 10 4.68 10 4 C8.9171875 4.309375 8.9171875 4.309375 7.8125 4.625 C4.55358415 5.05952211 2.91695496 4.41680669 0 3 C0 2.01 0 1.02 0 0 Z " fill="#243440" transform="translate(1184,503)"/>
<path d="M0 0 C-0.2578125 1.88671875 -0.2578125 1.88671875 -1 4 C-2.7421875 5.08203125 -2.7421875 5.08203125 -4.875 5.8125 C-5.92300781 6.19341797 -5.92300781 6.19341797 -6.9921875 6.58203125 C-9 7 -9 7 -12 6 C-12.33 5.34 -12.66 4.68 -13 4 C-11.2097939 3.32942113 -9.41778511 2.6636531 -7.625 2 C-6.62726563 1.62875 -5.62953125 1.2575 -4.6015625 0.875 C-2 0 -2 0 0 0 Z " fill="#182835" transform="translate(1136,502)"/>
<path d="M0 0 C0.66 0 1.32 0 2 0 C1.7606474 7.06090159 1.7606474 7.06090159 -0.33203125 9.64453125 C-4.30637608 13 -4.30637608 13 -7 13 C-7 13.66 -7 14.32 -7 15 C-7.66 14.67 -8.32 14.34 -9 14 C-8.60167969 13.49210937 -8.20335937 12.98421875 -7.79296875 12.4609375 C-4.71433825 8.46096502 -2.08404386 4.63120857 0 0 Z " fill="#283742" transform="translate(458,480)"/>
<path d="M0 0 C0 0.66 0 1.32 0 2 C-3.77222089 3.75163456 -6.666639 4.22490027 -10.8125 4.125 C-12.27623047 4.09792969 -12.27623047 4.09792969 -13.76953125 4.0703125 C-14.50558594 4.04710937 -15.24164062 4.02390625 -16 4 C-13.71388798 1.34139049 -11.97866809 0.46434206 -8.5625 -0.25 C-7.80066406 -0.42015625 -7.03882813 -0.5903125 -6.25390625 -0.765625 C-3.88563484 -1.01189239 -2.25334939 -0.71860801 0 0 Z " fill="#1D2D39" transform="translate(1120,483)"/>
<path d="M0 0 C0.99 0.33 1.98 0.66 3 1 C1.63560848 6.15436796 -1.72573615 9.06648401 -6 12 C-6.66 12 -7.32 12 -8 12 C-8 11.01 -8 10.02 -8 9 C-6.68212715 7.97971135 -5.34789347 6.98028616 -4 6 C-3.67 5.01 -3.34 4.02 -3 3 C-1.68 3.33 -0.36 3.66 1 4 C0.67 2.68 0.34 1.36 0 0 Z " fill="#233A43" transform="translate(613,467)"/>
<path d="M0 0 C-0.99 0.680625 -0.99 0.680625 -2 1.375 C-2.99 2.179375 -2.99 2.179375 -4 3 C-4 3.66 -4 4.32 -4 5 C-4.886875 4.979375 -5.77375 4.95875 -6.6875 4.9375 C-9.62169631 4.99286219 -12.15493696 5.3305734 -15 6 C-15 3 -15 3 -13 1 C-8.68972272 -0.26772861 -4.45126889 -0.07544524 0 0 Z " fill="#DCE6EA" transform="translate(708,401)"/>
<path d="M0 0 C0.33 0 0.66 0 1 0 C1.10794277 2.26979665 1.18556176 4.54105196 1.25 6.8125 C1.29640625 8.07707031 1.3428125 9.34164063 1.390625 10.64453125 C1 14 1 14 -1.015625 15.94921875 C-1.67046875 16.29597656 -2.3253125 16.64273437 -3 17 C-2.73958333 15.01432292 -2.47916667 13.02864583 -2.21875 11.04296875 C-1.946767 8.84528294 -1.946767 8.84528294 -2 6 C-1.36893571 3.98848259 -0.70626239 1.98636298 0 0 Z " fill="#2E3A44" transform="translate(742,487)"/>
<path d="M0 0 C4.99213851 0.46801299 9.12963993 2.91715737 13 6 C13 6.66 13 7.32 13 8 C13.94875 8.309375 14.8975 8.61875 15.875 8.9375 C19 10 19 10 21 11 C21 11.66 21 12.32 21 13 C17.17900503 11.60173735 13.9193224 9.82450795 10.5 7.625 C9.5821875 7.03976562 8.664375 6.45453125 7.71875 5.8515625 C5.03090027 4.02104415 2.51071482 2.06497197 0 0 Z " fill="#382225" transform="translate(727,369)"/>
<path d="M0 0 C1.65 0 3.3 0 5 0 C5 2.64 5 5.28 5 8 C4.01 8.33 3.02 8.66 2 9 C1.34 9.99 0.68 10.98 0 12 C0 8.04 0 4.08 0 0 Z " fill="#26364A" transform="translate(648,448)"/>
<path d="M0 0 C2.51005664 3.76508495 2.0258295 6.39461609 1.625 10.6875 C1.56828125 11.38939453 1.5115625 12.09128906 1.453125 12.81445312 C1.31195359 14.54380285 1.15728041 16.27204088 1 18 C0.67 18 0.34 18 0 18 C-0.1953125 15.98177083 -0.390625 13.96354167 -0.5859375 11.9453125 C-0.86374749 9.77331755 -0.86374749 9.77331755 -3 8 C-3.125 4.875 -3.125 4.875 -3 2 C-2.34 2 -1.68 2 -1 2 C-0.67 1.34 -0.34 0.68 0 0 Z " fill="#304454" transform="translate(1071,424)"/>
<path d="M0 0 C2.0625 1.25 2.0625 1.25 2.875 3.375 C2.936875 3.99375 2.99875 4.6125 3.0625 5.25 C2.2375 4.755 1.4125 4.26 0.5625 3.75 C-3.78929738 1.88494398 -6.2370569 1.87093201 -10.9375 2.25 C-13.34307853 3.11265968 -13.34307853 3.11265968 -14.9375 4.25 C-14.9375 3.26 -14.9375 2.27 -14.9375 1.25 C-10.35544053 -1.80470631 -5.09769157 -1.30153827 0 0 Z " fill="#362428" transform="translate(718.9375,346.75)"/>
<path d="M0 0 C0.87890625 6.15234375 0.87890625 6.15234375 1 8 C0.67 8.33 0.34 8.66 0 9 C-0.36162029 10.32594105 -0.69728039 11.65938457 -1 13 C-3.23079726 10.58330297 -3.96940652 9.24984673 -4.375 5.9375 C-4 3 -4 3 -2.5625 1.125 C-1 0 -1 0 0 0 Z " fill="#172A3A" transform="translate(1101,428)"/>
<path d="M0 0 C2.97 1.65 5.94 3.3 9 5 C9 5.99 9 6.98 9 8 C4.59885603 7.49701212 2.28804981 5.91227269 -1 3 C-0.67 2.01 -0.34 1.02 0 0 Z " fill="#AD7C79" transform="translate(740,378)"/>
<path d="M0 0 C0.33 0.66 0.66 1.32 1 2 C-4.445 4.475 -4.445 4.475 -10 7 C-10.33 6.01 -10.66 5.02 -11 4 C-10.34 4 -9.68 4 -9 4 C-8.896875 3.360625 -8.79375 2.72125 -8.6875 2.0625 C-8.460625 1.381875 -8.23375 0.70125 -8 0 C-4.69693408 -1.10102197 -3.28414305 -0.95067299 0 0 Z " fill="#1D3040" transform="translate(692,402)"/>
<path d="M0 0 C1.32 0.66 2.64 1.32 4 2 C3.67 2.99 3.34 3.98 3 5 C2.34 5 1.68 5 1 5 C0.67 5.99 0.34 6.98 0 8 C-1.32 8 -2.64 8 -4 8 C-2.25 2.25 -2.25 2.25 0 0 Z " fill="#E0E8EE" transform="translate(678,512)"/>
<path d="M0 0 C4.55384615 -0.36923077 4.55384615 -0.36923077 6.8125 1.5 C7.204375 1.995 7.59625 2.49 8 3 C6.75 4.5 6.75 4.5 5 6 C1 6 1 6 -1 5 C-0.67 3.35 -0.34 1.7 0 0 Z " fill="#EFF3F4" transform="translate(1227,410)"/>
<path d="M0 0 C0.33 0 0.66 0 1 0 C1 2.31 1 4.62 1 7 C1.33 7 1.66 7 2 7 C2 8.65 2 10.3 2 12 C1.01 12.495 1.01 12.495 0 13 C-0.69685498 11.3789897 -1.38222861 9.75303934 -2.0625 8.125 C-2.44535156 7.22007812 -2.82820312 6.31515625 -3.22265625 5.3828125 C-4 3 -4 3 -3 1 C-1.515 1.99 -1.515 1.99 0 3 C0 2.01 0 1.02 0 0 Z " fill="#1A2E3E" transform="translate(813,389)"/>
<path d="M0 0 C3.29949108 0.22755111 4.97292772 0.38372691 7.625 2.25 C9.625 5.25 9.625 5.25 9.25 7.4375 C9.04375 8.035625 8.8375 8.63375 8.625 9.25 C8.563125 8.63125 8.50125 8.0125 8.4375 7.375 C7.811939 5.06869735 7.811939 5.06869735 5.5625 4.0625 C1.90760763 3.05157232 -1.60196914 2.63369805 -5.375 2.25 C-3.375 0.25 -3.375 0.25 0 0 Z " fill="#022F4F" transform="translate(967.375,359.75)"/>
<path d="M0 0 C3.3125 0.125 3.3125 0.125 7 1 C10.37402963 5.24474695 10.32476155 9.52674454 10.30078125 14.73046875 C10 17 10 17 8 20 C8.04640625 19.27554687 8.0928125 18.55109375 8.140625 17.8046875 C8.3707038 11.64186241 8.31835861 7.79817623 4 3 C1.89424357 1.16699091 1.89424357 1.16699091 0 0 Z " fill="#222612" transform="translate(934,342)"/>
<path d="M0 0 C2 2 2 2 2 5 C1.01 5.33 0.02 5.66 -1 6 C-2.22520264 9.00847418 -2.22520264 9.00847418 -3 12 C-3.33 12 -3.66 12 -4 12 C-4.66 9.69 -5.32 7.38 -6 5 C-2.25 1.125 -2.25 1.125 0 0 Z " fill="#182C3E" transform="translate(642,483)"/>
<path d="M0 0 C4.4008703 3.82180842 5.80805531 6.47371099 7 12 C6.01 12.33 5.02 12.66 4 13 C4 11.35 4 9.7 4 8 C2.68 7.67 1.36 7.34 0 7 C0 4.69 0 2.38 0 0 Z " fill="#233240" transform="translate(957,432)"/>
<path d="M0 0 C1 2 1 2 1 5 C-0.678231 7.29652664 -1.61161952 7.93029068 -4.4375 8.4375 C-7.65600636 9.1440014 -8.87197696 10.55671429 -11 13 C-9.63422544 8.71506993 -7.79318655 6.56854295 -4.375 3.6875 C-3.55773437 2.99011719 -2.74046875 2.29273438 -1.8984375 1.57421875 C-0.95871094 0.79498047 -0.95871094 0.79498047 0 0 Z " fill="#DDE7E9" transform="translate(681,409)"/>
<path d="M0 0 C0.33 0.66 0.66 1.32 1 2 C2.32 1.67 3.64 1.34 5 1 C3.66667905 4.99996286 1.5042173 5.83782337 -2 8 C-2.66 7.67 -3.32 7.34 -4 7 C-4 6.34 -4 5.68 -4 5 C-3.34 5 -2.68 5 -2 5 C-2.33 3.68 -2.66 2.36 -3 1 C-2.01 0.67 -1.02 0.34 0 0 Z " fill="#1A2E3B" transform="translate(1038,408)"/>
<path d="M0 0 C3.2542015 2.83430453 4.5206753 4.68607774 5 9 C3.02 9 1.04 9 -1 9 C-1.80967438 6.08517222 -2.21845993 4.53886783 -1.0625 1.6875 C-0.711875 1.130625 -0.36125 0.57375 0 0 Z " fill="#1D313F" transform="translate(811,474)"/>
<path d="M0 0 C0.33 0.66 0.66 1.32 1 2 C1.66 2 2.32 2 3 2 C3.33 2.99 3.66 3.98 4 5 C3.01 6.485 3.01 6.485 2 8 C-2 8 -2 8 -4 7 C-2.92598892 4.08482708 -2.22189824 2.22189824 0 0 Z " fill="#E7ECF1" transform="translate(1036,416)"/>
<path d="M0 0 C3.45925163 1.2491742 6.14693203 2.67527795 9 5 C7.8553125 5.2165625 7.8553125 5.2165625 6.6875 5.4375 C3.91827092 5.9632594 3.91827092 5.9632594 1 7 C1 6.01 1 5.02 1 4 C0.34 4 -0.32 4 -1 4 C-0.67 2.68 -0.34 1.36 0 0 Z " fill="#1F313F" transform="translate(670,536)"/>
<path d="M0 0 C0.66 0.66 1.32 1.32 2 2 C1.875 4 1.875 4 1 6 C-1.0625 7.25 -1.0625 7.25 -3 8 C-3 8.66 -3 9.32 -3 10 C-3.66 10 -4.32 10 -5 10 C-5 10.66 -5 11.32 -5 12 C-5.66 11.67 -6.32 11.34 -7 11 C-4.69 7.37 -2.38 3.74 0 0 Z " fill="#E1ECEE" transform="translate(1077,480)"/>
<path d="M0 0 C0.66 0 1.32 0 2 0 C2.66 0.99 3.32 1.98 4 3 C4.66 2.67 5.32 2.34 6 2 C5.44855089 6.08072342 5.08669204 6.91330796 2 10 C1.01 7.03 0.02 4.06 -1 1 C-0.67 0.67 -0.34 0.34 0 0 Z " fill="#162B3B" transform="translate(824,425)"/>
<path d="M0 0 C0.33 1.32 0.66 2.64 1 4 C0.38125 4.268125 -0.2375 4.53625 -0.875 4.8125 C-3.2995233 5.95556848 -3.2995233 5.95556848 -5 9 C-8.125 10.1875 -8.125 10.1875 -11 11 C-7.6189962 6.86378916 -4.33409466 3.18683431 0 0 Z " fill="#D9E5EB" transform="translate(911,414)"/>
<path d="M0 0 C1.32 0 2.64 0 4 0 C2.76067171 3.43198603 1.49698489 6.30325632 -1 9 C-1.99 9 -2.98 9 -4 9 C-3.35334574 5.508067 -2.13457576 2.84610101 0 0 Z " fill="#C4B983" transform="translate(906,388)"/>
<path d="M0 0 C0 0.99 0 1.98 0 3 C-5.28 2.67 -10.56 2.34 -16 2 C-16 1.67 -16 1.34 -16 1 C-4.4 -2.2 -4.4 -2.2 0 0 Z " fill="#122123" transform="translate(940,340)"/>
<path d="M0 0 C5.75 4.75 5.75 4.75 8 7 C6.68 7.99 5.36 8.98 4 10 C3.67 9.01 3.34 8.02 3 7 C0.99983534 5.79117904 0.99983534 5.79117904 -1 5 C-0.67 3.35 -0.34 1.7 0 0 Z " fill="#203343" transform="translate(1068,493)"/>
<path d="M0 0 C2.10323534 0.0659735 4.20835724 0.08562245 6.3125 0.0625 C7.38113281 0.05347656 8.44976563 0.04445313 9.55078125 0.03515625 C10.76314453 0.01775391 10.76314453 0.01775391 12 0 C11.67 0.66 11.34 1.32 11 2 C8.27734375 2.4140625 8.27734375 2.4140625 4.9375 2.625 C3.83277344 2.69976562 2.72804688 2.77453125 1.58984375 2.8515625 C0.73519531 2.90054687 -0.11945312 2.94953125 -1 3 C-1 2.34 -1 1.68 -1 1 C-1.5775 1.350625 -2.155 1.70125 -2.75 2.0625 C-5.35801776 3.14917407 -6.39417629 2.93065133 -9 2 C-5.60918615 -1.13964245 -4.36273289 -0.94195369 0 0 Z " fill="#054269" transform="translate(960,385)"/>
<path d="M0 0 C2.31 0.33 4.62 0.66 7 1 C2.375 6.875 2.375 6.875 -1 8 C-0.67 5.36 -0.34 2.72 0 0 Z " fill="#152735" transform="translate(730,512)"/>
<path d="M0 0 C0.33 0 0.66 0 1 0 C2.14507772 5.19689119 2.14507772 5.19689119 2 8 C-0.4375 11 -0.4375 11 -3 13 C-4.23593891 9.29218328 -3.5678132 8.32489747 -2.0625 4.8125 C-1.68222656 3.91144531 -1.30195312 3.01039063 -0.91015625 2.08203125 C-0.60980469 1.39496094 -0.30945312 0.70789063 0 0 Z " fill="#223441" transform="translate(1149,480)"/>
<path d="M0 0 C0.99 0 1.98 0 3 0 C3.99 1.98 4.98 3.96 6 6 C5.01 6.33 4.02 6.66 3 7 C2.67 7.66 2.34 8.32 2 9 C1.67 7.68 1.34 6.36 1 5 C0.34 5 -0.32 5 -1 5 C-0.67 3.35 -0.34 1.7 0 0 Z " fill="#20303C" transform="translate(537,478)"/>
<path d="M0 0 C0.680625 0.45375 1.36125 0.9075 2.0625 1.375 C5.30435186 3.16836486 8.4203441 4.08753869 12 5 C9 7 9 7 6 6.8125 C2.97636283 5.99359827 1.76141566 5.54426706 0 3 C0 2.01 0 1.02 0 0 Z " fill="#DDE4E8" transform="translate(1098,439)"/>
<path d="M0 0 C1.62418745 -0.08090971 3.24951745 -0.13914995 4.875 -0.1875 C5.77992187 -0.22230469 6.68484375 -0.25710938 7.6171875 -0.29296875 C8.79667969 -0.14794922 8.79667969 -0.14794922 10 0 C10.66 0.99 11.32 1.98 12 3 C8.01803543 4.05404945 5.01804691 3.84098656 1 3 C0.67 2.01 0.34 1.02 0 0 Z " fill="#0B1F2D" transform="translate(1204,427)"/>
<path d="M0 0 C1.5 1.375 1.5 1.375 3 3 C3 3.66 3 4.32 3 5 C4.65 5 6.3 5 8 5 C7.01 5.495 7.01 5.495 6 6 C6 6.66 6 7.32 6 8 C4.53932801 7.54917531 3.08151968 7.08906463 1.625 6.625 C0.81289063 6.36976563 0.00078125 6.11453125 -0.8359375 5.8515625 C-3 5 -3 5 -5 3 C-3.35 2.67 -1.7 2.34 0 2 C0 1.34 0 0.68 0 0 Z " fill="#283B4A" transform="translate(615,400)"/>
<path d="M0 0 C3.50689941 1.84573653 5.74958059 3.12369984 7 7 C6.67 7.66 6.34 8.32 6 9 C4.0625 8.1875 4.0625 8.1875 2 7 C1.67 6.01 1.34 5.02 1 4 C0.34 3.67 -0.32 3.34 -1 3 C-0.67 2.01 -0.34 1.02 0 0 Z " fill="#1D3042" transform="translate(731,431)"/>
<path d="M0 0 C0.99 0.33 1.98 0.66 3 1 C2.01 4.3 1.02 7.6 0 11 C-0.66 10.67 -1.32 10.34 -2 10 C-2.25 3.375 -2.25 3.375 0 0 Z " fill="#1B2E3D" transform="translate(852,426)"/>
<path d="M0 0 C2.97 1.32 5.94 2.64 9 4 C8.01 4.33 7.02 4.66 6 5 C5.67 5.66 5.34 6.32 5 7 C1.535 5.02 1.535 5.02 -2 3 C-1.34 2.01 -0.68 1.02 0 0 Z " fill="#9C6866" transform="translate(722,367)"/>
<path d="M0 0 C0.99 0.33 1.98 0.66 3 1 C3.71167986 6.07071901 4.10662326 10.88208358 4 16 C2.68 15.67 1.36 15.34 0 15 C0.2475 14.2575 0.2475 14.2575 0.5 13.5 C1.41192659 8.94036703 1.48043888 4.44131663 0 0 Z " fill="#332025" transform="translate(723,353)"/>
<path d="M0 0 C4.22813145 1.37873852 8.03382539 3.0169127 12 5 C11.34 5 10.68 5 10 5 C10 5.66 10 6.32 10 7 C5.49197399 5.74194623 2.5087188 4.09592835 -1 1 C-0.67 0.67 -0.34 0.34 0 0 Z " fill="#233340" transform="translate(683,513)"/>
<path d="M0 0 C0.99 0 1.98 0 3 0 C3.66 0.66 4.32 1.32 5 2 C3.515 4.475 3.515 4.475 2 7 C0.68 6.67 -0.64 6.34 -2 6 C-2.33 4.68 -2.66 3.36 -3 2 C-2.34 2 -1.68 2 -1 2 C-0.67 1.34 -0.34 0.68 0 0 Z " fill="#1B2F3C" transform="translate(667,521)"/>
<path d="M0 0 C1.4540625 0.0309375 1.4540625 0.0309375 2.9375 0.0625 C0.98666284 2.70186793 -0.15486282 3.08302507 -3.4375 3.8125 C-6.64276434 4.03355271 -8.99022311 3.9003937 -12.0625 3.0625 C-12.0625 2.7325 -12.0625 2.4025 -12.0625 2.0625 C-10.01171875 1.83463542 -7.9609375 1.60677083 -5.91015625 1.37890625 C-3.00452994 0.88132542 -3.42063662 0.06980891 0 0 Z " fill="#223340" transform="translate(1224.0625,481.9375)"/>
<path d="M0 0 C-4.56120312 1.17708468 -9.31612353 1.51750695 -14 1 C-14.99 0.34 -15.98 -0.32 -17 -1 C-11.42991117 -2.39252221 -5.00818455 -3.3387897 0 0 Z " fill="#3D4C55" transform="translate(950,428)"/>
<path d="M0 0 C4.455 0.99 4.455 0.99 9 2 C8.01 2.99 7.02 3.98 6 5 C2.3125 4.6875 2.3125 4.6875 -1 4 C-0.67 2.68 -0.34 1.36 0 0 Z " fill="#1B2B3A" transform="translate(921,504)"/>
<path d="M0 0 C12.66970387 -0.3690205 12.66970387 -0.3690205 18 2 C18 2.33 18 2.66 18 3 C11.71739294 3.23268915 6.11980533 2.40454548 0 1 C0 0.67 0 0.34 0 0 Z " fill="#CAD3DA" transform="translate(1090,505)"/>
<path d="M0 0 C1.125 1.625 1.125 1.625 2 4 C1.3125 7.1875 1.3125 7.1875 0 10 C-0.99 10.33 -1.98 10.66 -3 11 C-2.69217504 9.35328588 -2.37860766 7.70764424 -2.0625 6.0625 C-1.88847656 5.14597656 -1.71445312 4.22945313 -1.53515625 3.28515625 C-1 1 -1 1 0 0 Z " fill="#192A28" transform="translate(902,386)"/>
<path d="M0 0 C0.99 0.33 1.98 0.66 3 1 C2.33035714 8.09821429 2.33035714 8.09821429 -1 11 C-1.02688151 9.35425434 -1.04634123 7.70838587 -1.0625 6.0625 C-1.07410156 5.14597656 -1.08570313 4.22945313 -1.09765625 3.28515625 C-1 1 -1 1 0 0 Z " fill="#043150" transform="translate(978,368)"/>
<path d="M0 0 C-0.66 1.32 -1.32 2.64 -2 4 C-4.97 4 -7.94 4 -11 4 C-11 3.34 -11 2.68 -11 2 C-9.5422647 1.664061 -8.08378894 1.33133376 -6.625 1 C-5.40683594 0.7215625 -5.40683594 0.7215625 -4.1640625 0.4375 C-2 0 -2 0 0 0 Z " fill="#DCC080" transform="translate(938,362)"/>
<path d="M0 0 C0.66 0 1.32 0 2 0 C1.65120368 3.25543229 0.97866739 4.01873107 -1.5625 6.25 C-2.366875 6.8275 -3.17125 7.405 -4 8 C-4.33 6.35 -4.66 4.7 -5 3 C-4.34 2.67 -3.68 2.34 -3 2 C-2.34 2.33 -1.68 2.66 -1 3 C-0.67 2.01 -0.34 1.02 0 0 Z " fill="#EEF3F3" transform="translate(1142,491)"/>
<path d="M0 0 C0.66 0.66 1.32 1.32 2 2 C1.625 5.625 1.625 5.625 1 9 C-0.65 9.33 -2.3 9.66 -4 10 C-2.68 6.7 -1.36 3.4 0 0 Z " fill="#283945" transform="translate(645,472)"/>
<path d="M0 0 C1.65 0.33 3.3 0.66 5 1 C5.33 3.31 5.66 5.62 6 8 C4.35 7.67 2.7 7.34 1 7 C1 6.01 1 5.02 1 4 C0.34 3.34 -0.32 2.68 -1 2 C-0.67 1.34 -0.34 0.68 0 0 Z " fill="#081D30" transform="translate(577,473)"/>
<path d="M0 0 C1.98 0.495 1.98 0.495 4 1 C2.14285714 8.57142857 2.14285714 8.57142857 -1 11 C-0.835 9.9275 -0.67 8.855 -0.5 7.75 C0.08810915 3.96971248 0.08810915 3.96971248 0 0 Z " fill="#1D2D20" transform="translate(915,365)"/>
<path d="M0 0 C2.625 -0.1875 2.625 -0.1875 5 0 C4.67 1.98 4.34 3.96 4 6 C3.01 6.33 2.02 6.66 1 7 C0.01 5.68 -0.98 4.36 -2 3 C-1.34 2.01 -0.68 1.02 0 0 Z " fill="#EEF3F5" transform="translate(905,488)"/>
<path d="M0 0 C0.66 0.66 1.32 1.32 2 2 C1.96712417 4.72869407 1.43602229 7.2966618 1 10 C0.34 8.68 -0.32 7.36 -1 6 C-1.66 6 -2.32 6 -3 6 C-2 3 -2 3 0 0 Z " fill="#1C2D3A" transform="translate(476,482)"/>
<path d="M0 0 C2.66666667 2.66666667 5.33333333 5.33333333 8 8 C7.01 8.495 7.01 8.495 6 9 C3.375 8.0625 3.375 8.0625 1 7 C0.67 4.69 0.34 2.38 0 0 Z " fill="#1D3040" transform="translate(1075,452)"/>
<path d="M0 0 C2.430466 2.430466 2.76271993 3.5989856 3 7 C1.5625 9.8125 1.5625 9.8125 0 12 C-0.66 11.01 -1.32 10.02 -2 9 C-1.34 9 -0.68 9 0 9 C0 6.03 0 3.06 0 0 Z " fill="#243745" transform="translate(787,412)"/>
<path d="M0 0 C6.27 0.33 12.54 0.66 19 1 C19 1.33 19 1.66 19 2 C12.4 2.33 5.8 2.66 -1 3 C-0.67 2.01 -0.34 1.02 0 0 Z " fill="#4B5A65" transform="translate(1097,404)"/>
<path d="M0 0 C3.96 0.99 3.96 0.99 8 2 C4.77484237 3.73662334 1.48670834 4.8905928 -2 6 C-1.49396008 3.83125748 -1.00016187 2.00032373 0 0 Z " fill="#213440" transform="translate(566,401)"/>
<path d="M0 0 C2 2 2 2 2 4 C0.1875 5.6875 0.1875 5.6875 -2 7 C-2.99 6.67 -3.98 6.34 -5 6 C-3.63016497 2.83884224 -3.0109362 2.0072908 0 0 Z " fill="#3B96B9" transform="translate(946,386)"/>
<path d="M0 0 C0.66 0 1.32 0 2 0 C1.125 5.75 1.125 5.75 0 8 C-1.65 8 -3.3 8 -5 8 C-5 7.34 -5 6.68 -5 6 C-4.34 6 -3.68 6 -3 6 C-3 5.34 -3 4.68 -3 4 C-2.34 4 -1.68 4 -1 4 C-0.67 2.68 -0.34 1.36 0 0 Z " fill="#122427" transform="translate(917,380)"/>
<path d="M0 0 C1.34096777 2.68193553 1.01150432 5.08407792 0.96875 8.0234375 C1.00227898 10.14414565 1.32910345 11.98731036 2 14 C1.01 14.33 0.02 14.66 -1 15 C-2.37007865 10.2808402 -1.8871779 5.77104559 -1 1 C-0.67 0.67 -0.34 0.34 0 0 Z " fill="#33ABE2" transform="translate(956,368)"/>
<path d="M0 0 C0.66 0 1.32 0 2 0 C2.144375 1.216875 2.28875 2.43375 2.4375 3.6875 C2.82780953 6.82670377 3.32351856 9.9075134 4 13 C1.78631706 10.78631706 0.13447079 9.06983375 -0.265625 5.88671875 C-0.25166986 3.92253213 -0.13286356 1.9597375 0 0 Z " fill="#201E21" transform="translate(698,356)"/>
<path d="M0 0 C0.66 0 1.32 0 2 0 C2.45732667 5.71658336 1.52273754 8.48649253 -2 13 C-2.33 12.01 -2.66 11.02 -3 10 C-2.34 9.34 -1.68 8.68 -1 8 C-0.54188325 6.02764667 -0.54188325 6.02764667 -0.375 3.875 C-0.25125 2.59625 -0.1275 1.3175 0 0 Z " fill="#BBAE79" transform="translate(941,351)"/>
<path d="M0 0 C0.99 0.495 0.99 0.495 2 1 C2.6328125 3.50390625 2.6328125 3.50390625 3.125 6.5625 C3.29257812 7.57441406 3.46015625 8.58632813 3.6328125 9.62890625 C3.75398437 10.41136719 3.87515625 11.19382812 4 12 C1 10 1 10 0 7 C-0.03954234 4.66700175 -0.04401732 2.33291811 0 0 Z " fill="#E0C77B" transform="translate(919,351)"/>
<path d="M0 0 C3.84685385 1.24762828 6.02929405 2.3870391 8 6 C7.67 6.99 7.34 7.98 7 9 C4.03595495 6.19195732 1.55500981 3.81684226 0 0 Z " fill="#CEB979" transform="translate(934,343)"/>
<path d="M0 0 C3.465 1.98 3.465 1.98 7 4 C7 4.66 7 5.32 7 6 C4.69 5.67 2.38 5.34 0 5 C0 3.33333333 0 1.66666667 0 0 Z " fill="#192B3A" transform="translate(555,497)"/>
<path d="M0 0 C0.66 0.99 1.32 1.98 2 3 C1.01 3.33 0.02 3.66 -1 4 C-1 5.98 -1 7.96 -1 10 C-1.99 9.67 -2.98 9.34 -4 9 C-4.33 8.01 -4.66 7.02 -5 6 C-3.59554165 3.7363436 -1.8032087 1.9791315 0 0 Z " fill="#263440" transform="translate(1144,492)"/>
<path d="M0 0 C2.29633824 3.44450737 2.54016485 5.93812283 3 10 C1.68 9.34 0.36 8.68 -1 8 C-1.125 2.25 -1.125 2.25 0 0 Z " fill="#253744" transform="translate(661,466)"/>
<path d="M0 0 C0.33 0 0.66 0 1 0 C1.05389087 1.95803507 1.09274217 3.91648909 1.125 5.875 C1.14820313 6.96554687 1.17140625 8.05609375 1.1953125 9.1796875 C1 12 1 12 -1 14 C-2.13732426 10.59598052 -1.83989957 8.22543336 -1.0625 4.75 C-0.86785156 3.85796875 -0.67320313 2.9659375 -0.47265625 2.046875 C-0.31667969 1.37140625 -0.16070313 0.6959375 0 0 Z " fill="#233242" transform="translate(1156,451)"/>
<path d="M0 0 C0.99 0.66 1.98 1.32 3 2 C1.8553125 2.8971875 1.8553125 2.8971875 0.6875 3.8125 C-1.3483575 5.46959332 -3.1978279 7.10297674 -5 9 C-5.66 8.01 -6.32 7.02 -7 6 C-6.030625 5.38125 -5.06125 4.7625 -4.0625 4.125 C-0.97164638 2.34321154 -0.97164638 2.34321154 0 0 Z " fill="#E9EEF2" transform="translate(571,431)"/>
<path d="M0 0 C0.66666667 2.66666667 1.33333333 5.33333333 2 8 C1.34 8 0.68 8 0 8 C-0.33 8.99 -0.66 9.98 -1 11 C-1.66 10.67 -2.32 10.34 -3 10 C-2.39009109 6.44219804 -1.4216319 3.3171411 0 0 Z " fill="#32424B" transform="translate(883,429)"/>
<path d="M0 0 C0 0.66 0 1.32 0 2 C-3.31114834 3.12880057 -6.58978257 4.21302675 -10 5 C-5 -1.5 -5 -1.5 0 0 Z " fill="#283741" transform="translate(934,429)"/>
<path d="M0 0 C-2.61514317 2.12038635 -5.19637616 4.13091744 -8 6 C-7.625 3.0625 -7.625 3.0625 -7 0 C-4.3333581 -1.33332095 -2.83319697 -0.67102033 0 0 Z " fill="#DFE9EA" transform="translate(705,428)"/>
<path d="M0 0 C0.66 0.33 1.32 0.66 2 1 C2.36625971 5.51720311 2.36625971 5.51720311 0.625 7.8125 C-1 9 -1 9 -3 9 C-2.01 6.03 -1.02 3.06 0 0 Z " fill="#253543" transform="translate(887,420)"/>
<path d="M0 0 C0.99 0.33 1.98 0.66 3 1 C1.35 2.65 -0.3 4.3 -2 6 C-3.32 5.34 -4.64 4.68 -6 4 C-3.1875 1.9375 -3.1875 1.9375 0 0 Z " fill="#4AA0C1" transform="translate(939,391)"/>
<path d="M0 0 C0 2 0 4 0 6 C-0.66 6 -1.32 6 -2 6 C-2.33 6.66 -2.66 7.32 -3 8 C-4.65 8 -6.3 8 -8 8 C-5.33333333 5.33333333 -2.66666667 2.66666667 0 0 Z " fill="#2F414F" transform="translate(983,491)"/>
<path d="M0 0 C2.18975773 3.28463659 2.99806563 6.20696275 4 10 C1.5 8.3125 1.5 8.3125 -1 6 C-1.375 3.3125 -1.375 3.3125 -1 1 C-0.67 0.67 -0.34 0.34 0 0 Z " fill="#253440" transform="translate(818,488)"/>
<path d="M0 0 C0.66 0 1.32 0 2 0 C3.42944945 2.35438733 4.08661261 3.48032433 3.625 6.25 C3.41875 6.8275 3.2125 7.405 3 8 C1.68 7.01 0.36 6.02 -1 5 C-0.67 3.35 -0.34 1.7 0 0 Z " fill="#1A2C3A" transform="translate(1188,470)"/>
<path d="M0 0 C1.98 0 3.96 0 6 0 C6 0.66 6 1.32 6 2 C6.66 2 7.32 2 8 2 C8 2.66 8 3.32 8 4 C5.125 4.125 5.125 4.125 2 4 C1.34 3.34 0.68 2.68 0 2 C0 1.34 0 0.68 0 0 Z " fill="#EBECEE" transform="translate(1056,428)"/>
<path d="M0 0 C0.91007812 0.00902344 1.82015625 0.01804687 2.7578125 0.02734375 C3.45648437 0.03894531 4.15515625 0.05054688 4.875 0.0625 C4.875 0.3925 4.875 0.7225 4.875 1.0625 C2.895 1.0625 0.915 1.0625 -1.125 1.0625 C-1.455 2.0525 -1.785 3.0425 -2.125 4.0625 C-3.775 4.0625 -5.425 4.0625 -7.125 4.0625 C-7.125 3.0725 -7.125 2.0825 -7.125 1.0625 C-4.60024538 -0.19987731 -2.81299534 -0.03606404 0 0 Z " fill="#4B5861" transform="translate(1109.125,425.9375)"/>
<path d="M0 0 C2.31 1.98 4.62 3.96 7 6 C6.01 6.99 5.02 7.98 4 9 C-0.00390625 4.60546875 -0.00390625 4.60546875 -1 3 C-0.67 2.01 -0.34 1.02 0 0 Z " fill="#273845" transform="translate(979,419)"/>
<path d="M0 0 C3.26954202 0.56371414 4.82575883 1.49962266 7 4 C6.67 4.99 6.34 5.98 6 7 C3.95880212 5.38405168 1.95927063 3.7143618 0 2 C0 1.34 0 0.68 0 0 Z " fill="#22323E" transform="translate(625,409)"/>
<path d="M0 0 C-0.33 1.32 -0.66 2.64 -1 4 C-2.32 3.67 -3.64 3.34 -5 3 C-5 3.66 -5 4.32 -5 5 C-6.32 5.33 -7.64 5.66 -9 6 C-9.33 5.34 -9.66 4.68 -10 4 C-8.71086513 3.32845067 -7.41859796 2.66291141 -6.125 2 C-5.40570312 1.62875 -4.68640625 1.2575 -3.9453125 0.875 C-2 0 -2 0 0 0 Z " fill="#E0E8ED" transform="translate(922,409)"/>
<path d="M0 0 C-1.7015625 0.680625 -1.7015625 0.680625 -3.4375 1.375 C-7.04721692 2.57095806 -7.04721692 2.57095806 -8 5 C-8.66 5 -9.32 5 -10 5 C-10.33 4.01 -10.66 3.02 -11 2 C-3.57142857 -1.57142857 -3.57142857 -1.57142857 0 0 Z " fill="#D6E1E8" transform="translate(1098,408)"/>
<path d="M0 0 C0.66 0 1.32 0 2 0 C1.67 2.64 1.34 5.28 1 8 C-0.32 8.33 -1.64 8.66 -3 9 C-2.01 6.03 -1.02 3.06 0 0 Z " fill="#2D3C48" transform="translate(894,403)"/>
<path d="M0 0 C1.125 1.75 1.125 1.75 2 4 C1.125 6.25 1.125 6.25 0 8 C-0.66 8 -1.32 8 -2 8 C-2.33 8.66 -2.66 9.32 -3 10 C-3.36629408 5.72656908 -2.40814077 3.51187196 0 0 Z " fill="#04263E" transform="translate(980,374)"/>
<path d="M0 0 C-3.34939881 2.02558881 -5.86962551 2.21738987 -9.75 2.125 C-10.73484375 2.10695313 -11.7196875 2.08890625 -12.734375 2.0703125 C-13.85585938 2.03550781 -13.85585938 2.03550781 -15 2 C-15 1.67 -15 1.34 -15 1 C-9.69276568 -0.42705634 -5.46108889 -1.4002792 0 0 Z " fill="#3F2726" transform="translate(724,371)"/>
<path d="M0 0 C0.96706319 3.00864103 1.27677226 5.05360248 0 8 C-2.58152302 9.72101535 -3.84918025 10 -7 10 C-6.57847656 9.52949219 -6.15695312 9.05898438 -5.72265625 8.57421875 C-5.17480469 7.95160156 -4.62695312 7.32898438 -4.0625 6.6875 C-3.51722656 6.07261719 -2.97195313 5.45773437 -2.41015625 4.82421875 C-0.79918441 2.94758042 -0.79918441 2.94758042 0 0 Z " fill="#D2DBDE" transform="translate(740,507)"/>
<path d="M0 0 C-1.75864246 2.1793144 -2.69396 2.93686419 -5.48046875 3.51171875 C-6.82044922 3.59873047 -6.82044922 3.59873047 -8.1875 3.6875 C-9.08855469 3.75324219 -9.98960937 3.81898438 -10.91796875 3.88671875 C-11.60503906 3.92410156 -12.29210937 3.96148437 -13 4 C-12.40316406 3.70480469 -11.80632813 3.40960938 -11.19140625 3.10546875 C-9.42058404 2.21216628 -7.67462105 1.26968915 -5.9375 0.3125 C-3 -1 -3 -1 0 0 Z " fill="#1C2C3A" transform="translate(605,479)"/>
<path d="M0 0 C1.32 0 2.64 0 4 0 C4.93423645 3.01031744 5.04449911 3.86650268 4 7 C2 5.75 2 5.75 0 4 C0 2.68 0 1.36 0 0 Z " fill="#162E3D" transform="translate(1082,473)"/>
<path d="M0 0 C2.64 0.33 5.28 0.66 8 1 C8.33 1.99 8.66 2.98 9 4 C6.36 3.67 3.72 3.34 1 3 C0.67 2.01 0.34 1.02 0 0 Z " fill="#172836" transform="translate(1101,467)"/>
<path d="M0 0 C0.99 0.66 1.98 1.32 3 2 C2.1875 4.9375 2.1875 4.9375 1 8 C0.01 8.33 -0.98 8.66 -2 9 C-1.34 6.03 -0.68 3.06 0 0 Z " fill="#D9E4E9" transform="translate(538,433)"/>
<path d="M0 0 C0.99 0.33 1.98 0.66 3 1 C0.2180632 4.27286682 -3.27954067 5.96427697 -7 8 C-6.875 6.1875 -6.875 6.1875 -6 4 C-2.9375 2.25 -2.9375 2.25 0 1 C0 0.67 0 0.34 0 0 Z " fill="#033A5A" transform="translate(939,388)"/>
<path d="M0 0 C0.66 0 1.32 0 2 0 C2 0.66 2 1.32 2 2 C2.99 2 3.98 2 5 2 C5.66 4.31 6.32 6.62 7 9 C6.01 9 5.02 9 4 9 C2.68 6.03 1.36 3.06 0 0 Z " fill="#1E313B" transform="translate(448,383)"/>
<path d="M0 0 C0 1.32 0 2.64 0 4 C-5.75 2.25 -5.75 2.25 -8 0 C-4.71023192 -1.09658936 -3.28696233 -0.79953138 0 0 Z " fill="#E0E8ED" transform="translate(922,500)"/>
<path d="M0 0 C0.99 0 1.98 0 3 0 C2.67 3.3 2.34 6.6 2 10 C0 8 0 8 -0.1953125 6.0546875 C-0.13020833 4.03645833 -0.06510417 2.01822917 0 0 Z " fill="#14242F" transform="translate(771,488)"/>
<path d="M0 0 C0.99 0 1.98 0 3 0 C3 2.66666667 3 5.33333333 3 8 C0.9375 6.25 0.9375 6.25 -1 4 C-0.75 1.75 -0.75 1.75 0 0 Z " fill="#E5ECEE" transform="translate(550,488)"/>
<path d="M0 0 C1.65 0.33 3.3 0.66 5 1 C3.75453595 4.73639216 2.36595047 5.18756513 -1 7 C-1.66 6.34 -2.32 5.68 -3 5 C-2.34 5 -1.68 5 -1 5 C-0.67 3.35 -0.34 1.7 0 0 Z " fill="#223144" transform="translate(966,473)"/>
<path d="M0 0 C1.125 1.75 1.125 1.75 2 4 C1.125 6.25 1.125 6.25 0 8 C-1.74627478 5.38058783 -2.38722388 3.96175123 -3 1 C-2.01 0.67 -1.02 0.34 0 0 Z " fill="#172B39" transform="translate(1149,461)"/>
<path d="M0 0 C2.6855594 2.6855594 3.06049974 5.37621328 4 9 C2.0625 8.3125 2.0625 8.3125 0 7 C-0.93580311 4.12060581 -1.37245106 2.74490212 0 0 Z " fill="#2E3D49" transform="translate(795,432)"/>
<path d="M0 0 C0.33 1.32 0.66 2.64 1 4 C-1.31 4.66 -3.62 5.32 -6 6 C-5.8125 4.125 -5.8125 4.125 -5 2 C-2.4375 0.75 -2.4375 0.75 0 0 Z " fill="#06273F" transform="translate(950,379)"/>
<path d="M0 0 C0.33 0 0.66 0 1 0 C1.66 3.3 2.32 6.6 3 10 C1.68 10.33 0.36 10.66 -1 11 C-0.67 7.37 -0.34 3.74 0 0 Z " fill="#023D64" transform="translate(952,372)"/>
<path d="M0 0 C2.97 0.495 2.97 0.495 6 1 C5.67 1.99 5.34 2.98 5 4 C3.35 4.33 1.7 4.66 0 5 C0 3.35 0 1.7 0 0 Z " fill="#E6EFF2" transform="translate(739,538)"/>
<path d="M0 0 C1.98 0 3.96 0 6 0 C5.67 1.32 5.34 2.64 5 4 C2.69 4 0.38 4 -2 4 C-1.34 2.68 -0.68 1.36 0 0 Z " fill="#223545" transform="translate(1117,507)"/>
<path d="M0 0 C1.2065625 0.0309375 1.2065625 0.0309375 2.4375 0.0625 C2.4375 0.7225 2.4375 1.3825 2.4375 2.0625 C4.7475 2.0625 7.0575 2.0625 9.4375 2.0625 C9.4375 2.3925 9.4375 2.7225 9.4375 3.0625 C8.02126784 3.11697047 6.60441809 3.15550508 5.1875 3.1875 C4.39859375 3.21070313 3.6096875 3.23390625 2.796875 3.2578125 C0.23018059 3.0453378 -1.3541067 2.34904105 -3.5625 1.0625 C-2.5625 0.0625 -2.5625 0.0625 0 0 Z " fill="#3C4A58" transform="translate(711.5625,475.9375)"/>
<path d="M0 0 C3.15295167 3.15295167 5 6.51187917 5 11 C0.07692308 6.81538462 0.07692308 6.81538462 -0.3125 2.6875 C-0.209375 1.800625 -0.10625 0.91375 0 0 Z " fill="#D6E1E7" transform="translate(1184,468)"/>
<path d="M0 0 C1.32 0 2.64 0 4 0 C4.625 2.3125 4.625 2.3125 5 5 C4.01 6.485 4.01 6.485 3 8 C0 2.25 0 2.25 0 0 Z " fill="#E3EAEF" transform="translate(537,472)"/>
<path d="M0 0 C2.00720923 0.28674418 4.0085944 0.61866701 6 1 C5.67 1.66 5.34 2.32 5 3 C3.68 3 2.36 3 1 3 C0.67 4.32 0.34 5.64 0 7 C-0.38133299 5.0085944 -0.71325582 3.00720923 -1 1 C-0.67 0.67 -0.34 0.34 0 0 Z " fill="#182835" transform="translate(1186,466)"/>
<path d="M0 0 C0.66 0 1.32 0 2 0 C1.4739075 3.78786597 0.61896089 6.17152224 -2 9 C-2.66 9 -3.32 9 -4 9 C-4 8.34 -4 7.68 -4 7 C-3.34 6.67 -2.68 6.34 -2 6 C-1.27306096 4.02111039 -0.60183749 2.02045442 0 0 Z " fill="#D4DFE3" transform="translate(842,460)"/>
<path d="M0 0 C0.33 0 0.66 0 1 0 C0.67 3.3 0.34 6.6 0 10 C-0.99 9.67 -1.98 9.34 -3 9 C-2.30058404 5.85262818 -1.23921302 2.97411124 0 0 Z " fill="#20303C" transform="translate(429,458)"/>
<path d="M0 0 C0.66 0.33 1.32 0.66 2 1 C0.125 7.75 0.125 7.75 -1 10 C-1.66 10 -2.32 10 -3 10 C-2.01 6.7 -1.02 3.4 0 0 Z " fill="#354654" transform="translate(878,441)"/>
<path d="M0 0 C1.65 0.99 3.3 1.98 5 3 C4.67 3.99 4.34 4.98 4 6 C2.68 5.67 1.36 5.34 0 5 C-0.5625 3.0625 -0.5625 3.0625 -1 1 C-0.67 0.67 -0.34 0.34 0 0 Z " fill="#142A3C" transform="translate(923,434)"/>
<path d="M0 0 C1.32 0.33 2.64 0.66 4 1 C2.35 2.98 0.7 4.96 -1 7 C-1.99 6.34 -2.98 5.68 -4 5 C-3.01 5 -2.02 5 -1 5 C-0.67 3.35 -0.34 1.7 0 0 Z " fill="#DAE2E5" transform="translate(446,420)"/>
<path d="M0 0 C1.98 0.99 1.98 0.99 4 2 C3.67 3.65 3.34 5.3 3 7 C2.01 7 1.02 7 0 7 C0 4.69 0 2.38 0 0 Z " fill="#E1E9ED" transform="translate(1141,414)"/>
<path d="M0 0 C2.125 0.9375 2.125 0.9375 4 2 C2.68 3.32 1.36 4.64 0 6 C-0.66 5.67 -1.32 5.34 -2 5 C-2 3.68 -2 2.36 -2 1 C-1.34 0.67 -0.68 0.34 0 0 Z " fill="#16233B" transform="translate(754,393)"/>
<path d="M0 0 C0.66 0.66 1.32 1.32 2 2 C-0.77079887 5.80984844 -4.62868145 6.06840752 -9 7 C-7.79492039 4.58984078 -6.83672718 4.19684272 -4.5 2.9375 C-2.0882696 1.6858579 -2.0882696 1.6858579 0 0 Z " fill="#084062" transform="translate(949,388)"/>
<path d="M0 0 C0.99 0.33 1.98 0.66 3 1 C1.02 3.97 1.02 3.97 -1 7 C-1.66 6.67 -2.32 6.34 -3 6 C-1.125 1.125 -1.125 1.125 0 0 Z " fill="#D8C88D" transform="translate(922,365)"/>
<path d="M0 0 C-1.32 1.32 -2.64 2.64 -4 4 C-4.99 3.67 -5.98 3.34 -7 3 C-7.33 2.34 -7.66 1.68 -8 1 C-2.25 -1.125 -2.25 -1.125 0 0 Z " fill="#364450" transform="translate(1131,505)"/>
<path d="M0 0 C-2 2 -2 2 -5 4 C-8 2 -8 2 -9 0 C-5.62182575 -0.84454356 -3.32534757 -1.10844919 0 0 Z " fill="#2D3D49" transform="translate(525,507)"/>
<path d="M0 0 C2.31 0 4.62 0 7 0 C7 0.66 7 1.32 7 2 C4.69 2.33 2.38 2.66 0 3 C0 2.01 0 1.02 0 0 Z " fill="#E3EDF1" transform="translate(1220,504)"/>
<path d="M0 0 C1.8125 1.25 1.8125 1.25 2.8125 3.25 C0.1725 3.25 -2.4675 3.25 -5.1875 3.25 C-5.5175 2.59 -5.8475 1.93 -6.1875 1.25 C-2.76721014 -0.94875776 -2.76721014 -0.94875776 0 0 Z " fill="#283846" transform="translate(624.1875,500.75)"/>
<path d="M0 0 C3 0.125 3 0.125 6 1 C6.66 2.32 7.32 3.64 8 5 C4.7 4.01 1.4 3.02 -2 2 C-1.34 1.34 -0.68 0.68 0 0 Z " fill="#2B3944" transform="translate(930,481)"/>
<path d="M0 0 C2.69082872 0.17635452 5.32851446 0.61835921 8 1 C8 1.99 8 2.98 8 4 C4.26512223 3.5020163 2.18762365 3.12508244 -1 1 C-0.67 0.67 -0.34 0.34 0 0 Z " fill="#283847" transform="translate(1094,482)"/>
<path d="M0 0 C0.33 0.66 0.66 1.32 1 2 C1.66 2 2.32 2 3 2 C3 2.66 3 3.32 3 4 C3.66 4 4.32 4 5 4 C4.34 5.32 3.68 6.64 3 8 C1.02 4.535 1.02 4.535 -1 1 C-0.67 0.67 -0.34 0.34 0 0 Z " fill="#DFE7EB" transform="translate(667,477)"/>
<path d="M0 0 C0.66 0.66 1.32 1.32 2 2 C1.625 5.125 1.625 5.125 1 8 C0.34 7.67 -0.32 7.34 -1 7 C-1 5.68 -1 4.36 -1 3 C-1.66 2.67 -2.32 2.34 -3 2 C-2.01 2 -1.02 2 0 2 C0 1.34 0 0.68 0 0 Z " fill="#2A3744" transform="translate(1121,474)"/>
<path d="M0 0 C1.65 1.65 3.3 3.3 5 5 C3.68 4.67 2.36 4.34 1 4 C0.67 4.66 0.34 5.32 0 6 C-0.66 5.67 -1.32 5.34 -2 5 C-1.34 3.35 -0.68 1.7 0 0 Z " fill="#DFE9EC" transform="translate(450,443)"/>
<path d="M0 0 C1.98 0.99 1.98 0.99 4 2 C4 3.32 4 4.64 4 6 C4.66 6 5.32 6 6 6 C5.67 6.99 5.34 7.98 5 9 C2.67527795 6.14693203 1.2491742 3.45925163 0 0 Z " fill="#23323E" transform="translate(1249,425)"/>
<path d="M0 0 C2.31 0 4.62 0 7 0 C7.33 0.99 7.66 1.98 8 3 C7.34 3.66 6.68 4.32 6 5 C3.98079663 3.69593116 1.98075027 2.36176581 0 1 C0 0.67 0 0.34 0 0 Z " fill="#263541" transform="translate(1232,410)"/>
<path d="M0 0 C0 0.99 0 1.98 0 3 C-2.875 3.125 -2.875 3.125 -6 3 C-6.66 2.34 -7.32 1.68 -8 1 C-3.375 -1.125 -3.375 -1.125 0 0 Z " fill="#D1DAE1" transform="translate(1192,409)"/>
<path d="M0 0 C2 4 2 4 1.3125 6.1875 C0 8 0 8 -3 9 C-2.01 6.03 -1.02 3.06 0 0 Z " fill="#2D3E49" transform="translate(767,514)"/>
<path d="M0 0 C3.3 0 6.6 0 10 0 C5.5 3.375 5.5 3.375 1 3 C0.67 2.01 0.34 1.02 0 0 Z " fill="#182C3B" transform="translate(940,508)"/>
<path d="M0 0 C0 3 0 3 -1.375 4.6875 C-3 6 -3 6 -5 6 C-5 5.34 -5 4.68 -5 4 C-5.66 3.67 -6.32 3.34 -7 3 C-4.69 2.01 -2.38 1.02 0 0 Z " fill="#263642" transform="translate(731,497)"/>
<path d="M0 0 C2.46800047 1.15173355 4.04783565 2.04783565 6 4 C3.69 4 1.38 4 -1 4 C-1.33 3.34 -1.66 2.68 -2 2 C-1.34 2 -0.68 2 0 2 C0 1.34 0 0.68 0 0 Z " fill="#283845" transform="translate(1174,496)"/>
<path d="M0 0 C1.32 1.32 2.64 2.64 4 4 C3.34 5.32 2.68 6.64 2 8 C1.01 7.67 0.02 7.34 -1 7 C-0.67 6.34 -0.34 5.68 0 5 C0 4.01 0 3.02 0 2 C0 1.34 0 0.68 0 0 Z " fill="#203442" transform="translate(898,486)"/>
<path d="M0 0 C-0.75 1.9375 -0.75 1.9375 -2 4 C-4.125 4.75 -4.125 4.75 -6 5 C-6 4.01 -6 3.02 -6 2 C-3 0 -3 0 0 0 Z " fill="#1B2F3D" transform="translate(611,474)"/>
<path d="M0 0 C2.475 0.99 2.475 0.99 5 2 C4.67 2.66 4.34 3.32 4 4 C3.34 3.67 2.68 3.34 2 3 C1.34 4.32 0.68 5.64 0 7 C-0.66 5.68 -1.32 4.36 -2 3 C-1.34 3 -0.68 3 0 3 C0 2.01 0 1.02 0 0 Z " fill="#213240" transform="translate(1077,473)"/>
<path d="M0 0 C0.99 0.66 1.98 1.32 3 2 C3 2.66 3 3.32 3 4 C1.02 4.33 -0.96 4.66 -3 5 C-3 4.01 -3 3.02 -3 2 C-2.01 1.34 -1.02 0.68 0 0 Z " fill="#ECF1F2" transform="translate(693,467)"/>
<path d="M0 0 C0.33 0 0.66 0 1 0 C1.144375 1.093125 1.28875 2.18625 1.4375 3.3125 C1.88288104 6.93122987 1.88288104 6.93122987 3 10 C2.01 10.66 1.02 11.32 0 12 C0 8.04 0 4.08 0 0 Z " fill="#BCC7CD" transform="translate(619,450)"/>
<path d="M0 0 C0.33 1.65 0.66 3.3 1 5 C-1.9719385 3.87548273 -4.33440687 2.77706209 -7 1 C-2.25 0 -2.25 0 0 0 Z " fill="#233542" transform="translate(1137,449)"/>
<path d="M0 0 C0.99 0 1.98 0 3 0 C3 1.65 3 3.3 3 5 C1.35 5.66 -0.3 6.32 -2 7 C-1.34 4.69 -0.68 2.38 0 0 Z " fill="#E2EBEF" transform="translate(851,437)"/>
<path d="M0 0 C0.28875 0.61875 0.5775 1.2375 0.875 1.875 C1.93720042 4.13325765 1.93720042 4.13325765 4 6 C3.625 8.125 3.625 8.125 3 10 C0.64551835 7.44931155 0.01672076 6.28982642 -0.1875 2.75 C-0.125625 1.8425 -0.06375 0.935 0 0 Z " fill="#273540" transform="translate(1097,431)"/>
<path d="M0 0 C2.3125 -0.25 2.3125 -0.25 5 0 C6.8125 2 6.8125 2 8 4 C7.34 4.66 6.68 5.32 6 6 C4 4 2 2 0 0 Z " fill="#DAE4E9" transform="translate(730,430)"/>
<path d="M0 0 C0.99 1.32 1.98 2.64 3 4 C2.01 5.485 2.01 5.485 1 7 C-0.32 7 -1.64 7 -3 7 C-1.125 2.25 -1.125 2.25 0 0 Z " fill="#DFE7E9" transform="translate(1165,427)"/>
<path d="M0 0 C0.33 0.99 0.66 1.98 1 3 C0.01 3.99 -0.98 4.98 -2 6 C-2.99 4.68 -3.98 3.36 -5 2 C-2 0 -2 0 0 0 Z " fill="#21303E" transform="translate(443,429)"/>
<path d="M0 0 C1.74627478 2.61941217 2.38722388 4.03824877 3 7 C2.01 7.495 2.01 7.495 1 8 C0.01 7.01 -0.98 6.02 -2 5 C-1.34 3.35 -0.68 1.7 0 0 Z " fill="#D9E1E6" transform="translate(821,422)"/>
<path d="M0 0 C1.65 0.33 3.3 0.66 5 1 C4.34 2.32 3.68 3.64 3 5 C1.68 4.67 0.36 4.34 -1 4 C-0.67 2.68 -0.34 1.36 0 0 Z " fill="#192E3B" transform="translate(666,418)"/>
<path d="M0 0 C0.99 0 1.98 0 3 0 C1.60667426 3.36720387 0.0210714 4.9859524 -3 7 C-3 6.01 -3 5.02 -3 4 C-2.34 4 -1.68 4 -1 4 C-0.67 2.68 -0.34 1.36 0 0 Z " fill="#253542" transform="translate(550,413)"/>
<path d="M0 0 C0 1.32 0 2.64 0 4 C-2.97 3.67 -5.94 3.34 -9 3 C-9 2.67 -9 2.34 -9 2 C-3.375 0 -3.375 0 0 0 Z " fill="#072B40" transform="translate(959,386)"/>
<path d="M0 0 C1.32 0 2.64 0 4 0 C3.34 1.98 2.68 3.96 2 6 C1.34 6 0.68 6 0 6 C0 4.02 0 2.04 0 0 Z " fill="#E7F0E7" transform="translate(898,385)"/>
<path d="M0 0 C3.96 1.98 3.96 1.98 8 4 C8 4.99 8 5.98 8 7 C7.67 6.34 7.34 5.68 7 5 C4.47266765 4.34444881 4.47266765 4.34444881 2 4 C2 3.34 2 2.68 2 2 C1.34 2 0.68 2 0 2 C0 1.34 0 0.68 0 0 Z " fill="#453335" transform="translate(731,376)"/>
<path d="M0 0 C2.475 0.495 2.475 0.495 5 1 C5 1.66 5 2.32 5 3 C7.31 3 9.62 3 12 3 C12 3.33 12 3.66 12 4 C4.61538462 4.49230769 4.61538462 4.49230769 1.5 2 C1.005 1.34 0.51 0.68 0 0 Z " fill="#B67771" transform="translate(704,368)"/>
<path d="M0 0 C2.64 0.33 5.28 0.66 8 1 C8 1.33 8 1.66 8 2 C5.69 2 3.38 2 1 2 C0.67 2.99 0.34 3.98 0 5 C-0.66 5 -1.32 5 -2 5 C-1.34 3.35 -0.68 1.7 0 0 Z " fill="#5A4F30" transform="translate(925,365)"/>
<path d="M0 0 C2.64 0.33 5.28 0.66 8 1 C4.91190305 2.76462683 3.76687864 3 0 3 C0 2.01 0 1.02 0 0 Z M-2 3 C0 4 0 4 0 4 Z " fill="#1C2F3E" transform="translate(690,545)"/>
<path d="M0 0 C2.31 0.66 4.62 1.32 7 2 C6.67 2.66 6.34 3.32 6 4 C1.25 3.25 1.25 3.25 -1 1 C-0.67 0.67 -0.34 0.34 0 0 Z " fill="#1D2A37" transform="translate(489,504)"/>
<path d="M0 0 C0.99 0.33 1.98 0.66 3 1 C2.67 1.99 2.34 2.98 2 4 C0.02 4 -1.96 4 -4 4 C-2.68 2.68 -1.36 1.36 0 0 Z " fill="#1F323C" transform="translate(628,496)"/>
<path d="M0 0 C0.99 0.99 1.98 1.98 3 3 C2.34 3.66 1.68 4.32 1 5 C-0.32 4.34 -1.64 3.68 -3 3 C-2.01 2.01 -1.02 1.02 0 0 Z " fill="#203240" transform="translate(1250,491)"/>
<path d="M0 0 C0.66 0 1.32 0 2 0 C1.6875 1.875 1.6875 1.875 1 4 C0.01 4.66 -0.98 5.32 -2 6 C-2 2 -2 2 0 0 Z " fill="#E1E9ED" transform="translate(634,487)"/>
<path d="M0 0 C2.31 0.33 4.62 0.66 7 1 C6.67 2.65 6.34 4.3 6 6 C3.97945196 4.35830472 1.97956942 2.69088222 0 1 C0 0.67 0 0.34 0 0 Z " fill="#2A3C49" transform="translate(1246,485)"/>
<path d="M0 0 C1.65 0.33 3.3 0.66 5 1 C5 1.66 5 2.32 5 3 C3.02 3.99 3.02 3.99 1 5 C1 4.34 1 3.68 1 3 C0.34 3 -0.32 3 -1 3 C-0.67 2.01 -0.34 1.02 0 0 Z " fill="#EAF2F6" transform="translate(1086,481)"/>
<path d="M0 0 C0 0.66 0 1.32 0 2 C0.66 2 1.32 2 2 2 C2 2.99 2 3.98 2 5 C0.35 4.67 -1.3 4.34 -3 4 C-3.33 3.01 -3.66 2.02 -4 1 C-2 0 -2 0 0 0 Z " fill="#14293A" transform="translate(422,473)"/>
<path d="M0 0 C2.475 0.495 2.475 0.495 5 1 C4.34 2.65 3.68 4.3 3 6 C0 2.25 0 2.25 0 0 Z " fill="#E7EFF2" transform="translate(810,467)"/>
<path d="M0 0 C0.33 0 0.66 0 1 0 C1 1.98 1 3.96 1 6 C-0.32 6.33 -1.64 6.66 -3 7 C-1.125 1.125 -1.125 1.125 0 0 Z " fill="#263641" transform="translate(1188,436)"/>
<path d="M0 0 C2.5654594 2.5654594 2.54046087 4.47686668 3 8 C2.34 8 1.68 8 1 8 C0.26919734 6.02253397 -0.39421747 4.01927511 -1 2 C-0.67 1.34 -0.34 0.68 0 0 Z " fill="#D5DFE6" transform="translate(1253,434)"/>
<path d="M0 0 C0 0.33 0 0.66 0 1 C-0.93972656 1.19916016 -0.93972656 1.19916016 -1.8984375 1.40234375 C-3.12433594 1.66724609 -3.12433594 1.66724609 -4.375 1.9375 C-5.18710938 2.11152344 -5.99921875 2.28554688 -6.8359375 2.46484375 C-9.029463 2.92330693 -9.029463 2.92330693 -11 4 C-11.66 3.34 -12.32 2.68 -13 2 C-8.50343896 -0.24828052 -4.92127034 -0.16682272 0 0 Z " fill="#4D5860" transform="translate(1058,431)"/>
<path d="M0 0 C0.66 0.33 1.32 0.66 2 1 C2 3.31 2 5.62 2 8 C1.34 8 0.68 8 0 8 C-0.66 5.69 -1.32 3.38 -2 1 C-1.34 0.67 -0.68 0.34 0 0 Z " fill="#1E3140" transform="translate(646,432)"/>
<path d="M0 0 C2.5654594 2.5654594 2.54046087 4.47686668 3 8 C2.01 8 1.02 8 0 8 C-0.79953138 4.71303767 -1.09658936 3.28976808 0 0 Z " fill="#D7DFE3" transform="translate(817,412)"/>
<path d="M0 0 C0.99 0.33 1.98 0.66 3 1 C0.69 2.65 -1.62 4.3 -4 6 C-4.33 5.01 -4.66 4.02 -5 3 C-2.6875 1.4375 -2.6875 1.4375 0 0 Z " fill="#DFEAF0" transform="translate(688,405)"/>
<path d="M0 0 C1.65 0.99 3.3 1.98 5 3 C4.67 4.65 4.34 6.3 4 8 C1.84622436 5.37801226 0.59927826 3.35595828 0 0 Z " fill="#DFEAEF" transform="translate(785,406)"/>
<path d="M0 0 C0.99 1.32 1.98 2.64 3 4 C1.35 5.32 -0.3 6.64 -2 8 C-1.47731534 5.23723823 -0.89130413 2.6739124 0 0 Z " fill="#DBE5E9" transform="translate(864,403)"/>
</svg>
